<mxfile host="65bd71144e">
    <diagram id="mEmoZedCG42RrNchqzEC" name="Page-1">
        <mxGraphModel dx="1451" dy="1733" grid="1" gridSize="10" guides="1" tooltips="1" connect="1" arrows="1" fold="1" page="1" pageScale="1" pageWidth="1100" pageHeight="850" background="#ffffff" math="0" shadow="0">
            <root>
                <mxCell id="0"/>
                <mxCell id="1" parent="0"/>
                <mxCell id="167" value="" style="rounded=0;whiteSpace=wrap;html=1;fontSize=32;fillColor=none;fontColor=#E6E6E6;strokeColor=#E6E6E6;" vertex="1" parent="1">
                    <mxGeometry x="40" y="-800" width="920" height="680" as="geometry"/>
                </mxCell>
                <mxCell id="166" value="" style="rounded=1;whiteSpace=wrap;html=1;fontSize=18;fontColor=#000000;strokeColor=#333333;fillColor=none;arcSize=4;" vertex="1" parent="1">
                    <mxGeometry x="80" y="-680" width="820.15" height="520" as="geometry"/>
                </mxCell>
                <mxCell id="122" value="" style="rounded=1;whiteSpace=wrap;html=1;align=left;arcSize=3;fillColor=#f5f5f5;strokeColor=#666666;fontColor=#000000;" vertex="1" parent="1">
                    <mxGeometry x="560.15" y="-565" width="280" height="360" as="geometry"/>
                </mxCell>
                <mxCell id="126" value="" style="endArrow=none;html=1;edgeStyle=orthogonalEdgeStyle;rounded=1;fontColor=#000000;strokeColor=#333333;strokeWidth=2;" edge="1" parent="1">
                    <mxGeometry width="50" height="50" relative="1" as="geometry">
                        <mxPoint x="600.15" y="-325" as="sourcePoint"/>
                        <mxPoint x="600.15" y="-485" as="targetPoint"/>
                    </mxGeometry>
                </mxCell>
                <mxCell id="101" value="" style="rounded=1;whiteSpace=wrap;html=1;align=left;arcSize=3;fillColor=#f5f5f5;strokeColor=#666666;fontColor=#333333;" vertex="1" parent="1">
                    <mxGeometry x="140.15" y="-565" width="280" height="360" as="geometry"/>
                </mxCell>
                <mxCell id="103" value="GitHub Org" style="shape=image;verticalLabelPosition=middle;verticalAlign=middle;imageAspect=0;aspect=fixed;image=data:image/png,iVBORw0KGgoAAAANSUhEUgAAAlYAAAJVCAYAAAAcMbuxAAAVdHpUWHRSYXcgcHJvZmlsZSB0eXBlIGV4aWYAAHjarZrZdRw5tkX/YUWbAFzM5mBc63nwzO99IlMliiKru6qaFBlUZgzAHc4ApDv//3/X/YuvnIt3KddWeimer9RTt8Efzb++Xsfg0/P7+eIae7/6y+su5/cbxkuRY3y9Uc7rGAav558X1PR+ff76uqvr9Ye1943eb/y4YdST9aj9HuT7RtFer4f3/11/jceP8mE675+UyzO58j75t/9XgrE1pWjOTgzRP7/t9aSonxAHR/22aKa/Gn+n53eO5ff4ufc4wlcBvPf97qf4+fU+I/4Mx+tGP6ZVPsXp/XrIX8fvidLHEQV7n2I/39BXvz9C+Xv87t3t3vOa3UjFEa7yntSPKYbXtPYknPG5rPBd+cn8XZ/vznfzwy8etZnqdH7ynx6MiPP8sMMIN5znuMJiiMmOVY5mixzotRardVtPMpK+w7XqYo+bXFhcZC7ysv0xlvA8t+t5PKzx5B040wI3C8rmx2/3+YW/+/3Lje5VmYfwCuYTK8Zlqi+GoczpN2eRgnDfMc1PfIN7HfznLyU2ksH8hLkxweHn6xYzh5+1FZ88R58dpyb/SnKo+30DQsSzM4MJkQz4EmIOJfhqVkMgjo38DEZuMdkkAyG7bJtRWoqxkJxmejbX1PCca9leLwMvJILmiJXU9DhIVko5FfqtUULD5ZhTBplyzS33PEosqeRSSi3CqVFjTTXXUmtttdfRYkstt9Jqa6230a1HYCy7Xnrtrfc+Bg8daXCvwfmDF6bNONPMs8w62+xzLMpnpZVXWXW11dfYtuMGAtwuu+62+x4nHErppJNPOfW008+41NqNN918y6233X7HH1l7Z/XXrH3O3J9nLbyzZk+idF79mTVervXHLYLgJCtnZMxSIONVGaCgTTnzLaRkypxy5rtFF2M2RpmVnB2UMTKYTrB8wx+5+5m5b/PmiO5fzZt9lTmn1P0vMueUug+Z+z1vX2Rtjwdu45MgdSExBSEj7ccJpw1rQ7z07bHGVW5o2U5bI7RyMiMiRqPd4obv6domR2VfijTOSQe1RZx5eD0nErQOfO+QspA3f310373xV4+vG2UCuwjRvmdHyiPkeS3kvejkVMJdNgFrxSecAUkaIS/njLNGW9RROcWZV5oX9RJPX52IBTJ1bqk8BhzhxG3T/N5GuYyWmOhq2cdxYjvpDhqr60Z3rRn8rC0AHrNmnuEh2XUg3rtOqvvEa+POwsAjQa8L4KdyMpg6Y0eE0DxhOZiJf5eyfNKDCPh7R/eXLph3lD2SmlB1Hu5ZwlvBqCvZr5VO9YNCOKmvWg6tNNTlI5/Of237M+YYvaTpU1nE358A7LR6PZOudMByqxP93De1Q2lPQjRNISaioAIPoFdrX4RchUgqrXLO7mv6thF4lfREku7+flR+PX64EVTN+BOFAFp0X0nWLPD8hdj2f0iFLSfgSL3u2sOeBKCNfGOvYA7gguTKrV8hq9VDxssIRCSeBRQANWnGBkWBUssFCuzkpqAESrJTZcAJcah3cgGBGhnI2MtspuVbBkXAq4MORSusZqEd385ycdy0zscun+NRaqku4l8uoLNrvrtnY+ypF3RRtDRHLTmTKkTPzgVgGweyPNMutT2g/BLvirXZ6RvEqxuYK5PL9+5gAVCAVpn9cjqDqu3uQzXd6zTCMpMId3AtMrredf2kliCN2hH0nofVli+d7PfawN5QYa48lP3ARSebAxpvOjvfCpCHmmlh4NKjnmoFxdJFgSHLOoxPxfStZvOX2+9YD+JsdwUiQZDZz71vY8aFJJ/U9Ea7FXJKfjE1H9dALNZwQBMQGHa5DcZgfH1TMmmXstCQk1TfGq5KKO6cm0pHTy4mUCwPXUTwhx6ZGrwV4RL1sUlFOdc8IVoOAUOq1h02IQzwPQfQdSI1ibo/Gb0HosRK49QDjwDCJ5Kle0LaFea9QBLTcZoI5UH/3Ta55QmljXPm5xN/PW9MpkHDAu2lwbNruhPmpNhi6AXmobLpaE+tR8ZGYANxzdx2k4e8aQYalIqtFAY8AewNILZJ1e54cGD0s4xOhlMPsfTxzH5impTGHWmPGRO8euuswGBrgCZjAkFIns/Hn9scIQh3g6pzDoLHcA7RrAMoX7Nz3xMeT0INLs3PFiQ2xIS0Jo8E3xoRWG7fG6xtE8nmKMXtaSevygXWuftUe5y7oGw0yGA2dvaMe5TZ4Jh6N5BeiNHICMcGgtLowxM5bps0W6FERh4KX+gZIu+57W3+ZqTJmqQOSip0yVrtuEwdMVyME9oUFxh4MfJayIAi5dvvTOm0HVS1cexIpwIq9PDyeW/Qa5M8uB/WO55cg0LhFXD+fXHMBZTotuEskJ2KTHNRcnmuuWffxy24Kp6NgOm5TvolC62IuwoE5ksUYAEB6Jw6D6ARJ14J8Il07IYEbawb43ZAFkUDjoExbWVaWD2NPt+fRnRpnRboEKgEiXdaKJ2isNjppXhcyF1CtHpghiILC7IlrhFFRDU26iijPi+E0qoqp9YFZHmiCuh6w4mYaASC3OsPIF9nA01hG+o1MwFuWqZ00NmiJ+C9Us0X0c7AJ/MPug4S5ApahLJETwIacPpccRdEKq5vAB6eUXiQJBAQIPinL1VeEIhfUTb4qBoK6E50KWJew49oile7RmaXCxDROvOusAMoXOgKvoSklRhtiTGiGRMC5qyYMrGzCZeVbQEZmtUEQGQaISehV9t5/qoLD1BLa6wE9i/bm9pMdwmLwkVmmZqWAHMUdE4pLjIxa0BmkXgyfFSBYWym9l0JJsgWKmQWFDd3X3DCjIBOUNUxJIngQY31jmhobvYFDOohtSw1J7CjtiYEpAEkvSIdVHJHaqPOBSPkm3/toAd9zQH7XAfuqHzVGZAPAfVjV6LUrizAZpATfTdqopSQhAuf0siDFlaOA1d9fVqtqbHx9jUCafTSnhgC3KaFdcHEYEXOgdqiyi4+5+IysCQ5w7YdB8mI+8SvDiTsJoZKKIoTp0YIafB/Kv3QB5EJcO98oP8gzK2pPLpAjMzs+9JC0hjA4boOUYb8PRmumgOzQo0hc2/IjK2iGoDVllaMeGrysUGmOSFYCh4saROUnQdBdBykAkm8L2GOpQFtqGokJwlHTG+wHo0erXxjUriakLswKoIw9Ayao2/o6b2OLwktHlvY8VHwlDRYVZArDKkdEj4BH78wlUKpgpJwKE7cwRnkaU9SED49k0s7LpBy2cXoZB7e8W26nSc4l4KA4vNwEuutHp9rg1lFMNmjiWqbtCRyCJklrhCFAlCoArCZ6GACSATQbczi+Fkchisg33YOVeILZvlzz/bd0f36AlOvJL1LaUGYqLqoYMBzsWBMAjBIO7fNxBJSBxIBCujiXBy81FCZDZ2P+ChYWq6IMMoiz4BOQO96Ze2EOKxfLVVBHRcvbvAFAqJYO6O6KbxOsjS/i2dESQgLAwFSU1mEGoZB5C65A5oJ5m2RaqFblrtpjJxOJ6B4jaKjjLllTDd+DEaBVWiij56x5s3cweI4oXbscABGuBiZy2BzR6ciQtAotDEqEFztADBV+5IRizJAXN5DaT+NQmKlJuZTqq79vSR9Opp3Ae13Wnk1KuYJdYgcQqs2ZMJolpJvMgwGIHrMEm4RIkuQSigU8G0txgSOO8TdBqlbh7vB0RI6/hd1Q5mCo+P3FEB7qVwPWRFmnAd4BWsPuB/tQv5QxBkVnid+IIvWM0BbOp56lJ4PoptkGLR4Fj4HBgRceNbo7yy4VxoSJXi5UrzeWhcwNHloBM9OkJ2UdD0J1wX+UQmGSoxS94n0xIIHcHsgHNQZvpN6rEwWSONWH4VFz2M5OAeyOrljB6jJCtbsDDgRvZ32a0jun61C4NjLYrw3OfxiHksLzmXgnaSKJYRTvkbZoJNwhWjivgwrFx4dmChCSwE/hdWkgdDfdbrdO8jKjCnlLx+LWdAylqGyUb7Uez54ZwQzeANyJ0OJ8wiHMoaYxwZgJkZoX/HXlH/ySJKUgpxNeq1IIGcu0u5+8bTr0FMALY6HH2gtUv/RAEH06uIAtRnfeLSW7qZQIn9F5o3g4vwgawLcBSgbz79xwtPANmC5Pg7S6ClDyOOVsDAgEEX2563y3/XalEUpjCl40enxvcXU6R+UexGv5e5EGFVyirZPF8E3cN1bqIx6AgvR0bvZGDRDUeCwRJhj9BPNiOaCPiPaj6yhQXajO0kCKLaDOHYimiqyWvbIz29kjxavqFoGiJ1IwiOojOYiKj0jLVqUviE/gPfjRfEA9BsORzsF1ht5RV3tWlDBgXkcNXJ/KvvDY4z6AELxt+roikmJYA1WgtuinhkomdLSFzelrbkK0zPGCeaSSeomEBUTNoUldx20AIpM4oTZI2cbxYCQqo1/iDLDdAtw0p3hwcgzmoM75LFp6f1cuAc8HVemchHYEkiENGk9jGnmSnHGg78TB6GaFy3h0Z0+OaB9pRMrzwWoDM2wn62/b7zNt0eEFipgMjngHtV4Dkq1mFZmGThgyPzRxLjKiV07Er01R+0gdORCS3AHJuFYdijzgIhGZEAVaMxWBa90ILZecUX7aeXGA5Ub9z/jougMo0uozTrRQTwgYuk1ubkuQdRlNItUQepFS9jYJrTI/DNAgjHTgdCaS1GrcQGitoVQnnhICV8pXXgUH9zGx265ZBXxwaSY6j5m2GNwrHaHMSUDkHE1hrZXxb+gahZliQDCRpwNhgT0ugTOoj8gTAlgwDuhDruRWnjBcRPtyuDhVjKaAmE/ch3hEcwFSYJIAik2FqmQkgG2mXYsKKileEJxEcd1HV0mlb3y0xxBK/gHlFu90TjALh4hLI+MVdlFWkLz83YDtiKmjRAjXHaKyysfodfxFNdGc3lc6db20lUBZFQaYgPiyyPA+qi7Bt5yZcE3TbKZN2SE0Dpkt+AnEn4RMgrrUOVMbom/8Ey4LawsxY27xPXTZ5cWXLNUagBl2HNE/ezorjavTzTxuLJxpVcx8Hgj+JLZGITR0QETEpUO18YbSeAdX6a2G6QZGgWpC5C7tSjOcyPa8Xm4eWwLcQh71KeNOS9JWQR064autLFxk7wh4th6BWoLNk7Lk6hUCjsA0ai0hxkqCqTQxmVfeUNs2YXpIMQ1EOYIwQwnU0dSNG5MtLpRJB76D0TejGBkzGT2qMvcMB5mrWH5KTBM5r3CUR5JzsezRV4YrHT2Z6hPllBOaFliN5Tgxx6jgxLzAKGtDMFZ2wPf74GaUzMj0u4qCnwiPDLGTBAj0Ydp9dqlwWqjjYuYjGIDW+EnWGRp6Y85U8FUNjlOjpbUwvEG8eUMqT8g61kD23vmLBl9fNpM3toutFeSryJgFijGu/UBgsdC3Dg179IwB4vaHp4cGtnl6lq2VopredYmkYX+WTPAui1BlFw5GhbAgETd2Klk+gezZNGErJfuahK2FS1i/z1Cvrz5BESMFEU8AtAFC8SJV38+ajHwAVMLnEPfGD6znLQuDdOYBjwGxg9WxdMTEcE6ljKLFrG+BfBlsIeCxiztK1zoaMLZtdyFHiWjWlOjnbIm7J5VKK1Ntqa6q5lstYKYrzF05Dtyw5qgIaB+INCrLZqt5c6Z6FmtDCyolhFNWgSjNpt8Ar62N3Iz2/JotAKc0MRYNKwN6VtgiXGXRe9YXkW2l8dMWsYFIg8y3YS1n49VoIsuvh4/cbNWADzdoCpYWhFo2N8o47UaBE5bIuXQPij/gzF5yoYUUgcaJvaRCgSkiFIecBRW0qKiKLMMp3dUF3IRTqFLDpCAeHJXrR61glugYZRmliblBmJZTBkVKjtlPWirdty1r/rkcnNJHO4f4Syy1hg+lTyi9gnQeCbvWGfsodFQk3RNMb6QF8M2PQKiahzygqAdnVuSFtudz7kLKpBjaBDuOsUcVrXODM5pbQYdgRwpRHxLFgQh4Fx2D46iPLaTEnc1ApiznITAM0gLkNlNGcPaa3EMEDj40YVBBPXVfFwRCCNJomsQWnBHLmTN+26SeSgVEB2e6AOX3gdgBOJJtywTi2OLILP65aopJeLEK8h8oP02zAkMGhayok7hp/UF3UrI0eAqjfJaMa9Dq/XwiTyDtrBLcZOqC2epvrJkqwEKKBztv3qE5COkWin/0UO6b94gbhX6ikAWkIP76oicQOXhqprWmIFZ0A0nP55VTaRfbep6vHsmybvETt+HNboPE8mJXTna354V8phSuGDswsj56WURGhZ5UbHLUd8S4OSW2HOqFsQMQffsbWmDlU5ayIdKE+e1ke4wzMa1aMudwaGEkryBwzDYA+4EK/DwCUOkRWVrzQw+Mchk5dVgPoinHLwLzZK1bwboLhqNljG8yCMcHwlEZ5/cJPxl5LM+Toa3hMBaUQtDlZv25WfiIyj62sgJmjlQJSM4nNst4SEJWkHd3qQztB6NNEKWD3gHNvU0g7aaM3dEfJ8KfwNMBgXTvLe4nmaOgR7Q5VcOq6Nd8IcMBsG2zkMoWi98VjZpyEjb7y0hTQ/UHrVY04PD8meI3mulOWgtgcA/y4ycPcSuaA6sMBpCW5Q4YTs71KRJRAqwTxCYkHXsuvYZQBjBGsIAwYa9ofkwKQx/rFNgQvhlLmE3HYC+Ckl7iCknpgCwAjHRoWPGs0hGtOtBGPQQ0XWZeQEGkBuo+MUqpj4ucS+JgjnvmS2617oLfA4app15lRTVeaGToPeYZZQyoR7/1Lu7f2D686Z7eLCM33V3Swrr2cicQRkiAcpFsKEsnxFp5+VeUPoB9iPWQdehd6/W29YYCV7e3IhiGE9tP7vNeJzvQ+L9h6Do5k9EJFEWvEYzQTmAS0OqeiAIT6fNU3kyqTbApawk+fcsMK3/yQcHvjyKqPtx2jEaOIOhiou0EaArEc04YAQ5cY8qpPKFtQfkBSC0XwIMbqxXoEPwBFgIej4SR6CG04OarJ+zno8g3IlQyjCaGWWK0NOyxzLpZNqDrkSYA+onXDSCS1pjpX5hpYoAXTjTCWtgOca5yEZ6GLxCUw1+zw11ARtau0FbIBrQhf35BAiUzYi12YXsGUM7FPH5XA8Wxg6YwN23PucgkTaBqR+LyrAWfSs7ju8C6FxZ+nxDRRPo8yHPMk+ZEfmwMUca91brY+YAqCM6B9ualr0IzlFrQanapnBoBA+sF7lWyA4ytsSU57nCZ6m2+HzOxegk6iev+Fr3x3FlYdWkCFG62VVcDBIfWgZOtLmEgl/3wvkMDiWJekL5DG0hYGQq9EfhUWXkGH6HReB0JNvE90MqV29kieucgM2iT9aYTU0B99UKkI3D1CQ36kcfrfmNbt13OpWOuhvid/8GpnhiL5k7AqoAAAGFaUNDUElDQyBwcm9maWxlAAB4nH2RPUjDUBSFT1ulIhUHi4o4ZKhOFsWKOGoVilAh1AqtOpi89A+aNCQpLo6Ca8HBn8Wqg4uzrg6ugiD4A+Lm5qToIiXelxRaxHjh8T7Ou+fw3n2Av15mqtkxAaiaZaQScSGTXRWCr/ChHwMYR0xipj4nikl41tc9dVPdRXmWd9+f1aPkTAb4BOJZphsW8Qbx9Kalc94nDrOipBCfE48ZdEHiR67LLr9xLjjs55lhI52aJw4TC4U2ltuYFQ2VeIo4oqga5fszLiuctzir5Spr3pO/MJTTVpa5TmsYCSxiCSIEyKiihDIsRGnXSDGRovO4h3/I8YvkkslVAiPHAipQITl+8D/4PVszH5t0k0JxoPPFtj9GgOAu0KjZ9vexbTdOgMAzcKW1/JU6MPNJeq2lRY6A3m3g4rqlyXvA5Q4w+KRLhuRIAVr+fB54P6NvygJ9t0D3mju35jlOH4A0zSp5AxwcAqMFyl73eHdX+9z+7WnO7wfUPHLOycmg4QAAAAZiS0dEAP8A/wD/oL2nkwAAAAlwSFlzAABoRQAAaEUBxmOuIQAAAAd0SU1FB+UBFhcwOsJsW9YAACAASURBVHja7N33m2THfd/7d53u2dmM3QUWi8UiEyACEQgQJEGKSiRlS7REizIt2SJNS1eyKdHy/WuuLKcrXtmWTSuYtGRJlERKDCLFgJxzxi4WYXOe6a77w6nBznafnume6XDC+/U8zQUn9/ekz6mqUwWSNAN70r/bl31s84g/Y3PB91xiaSVJUl200itb9rGs59/VZEN8Phvx52QD/o4Ny/77IjefJEmalPaysDQotGQ1ea/ZOoKeJElSrYPSNOuWWTdJkpobAjT5gGq9pWYKlkCq34W9O8THxmwe2LjsNZ9eG3pec+Q9jEv/trlwWFYrnZey9G/vOSqmVzf920n/3UmvxfRaWPbvuZ7X2fQ6s+x1dhrbpPdfgK3ACXdbyWAlaXZ2AodHCFbrsBnYkq7/W5a9lh7I25RerYqXtAOcTq9T6XVy2etE+vfUpAMYkw/BkgxWUrO1l11sx3zRnSd/GG77ste2Za+21b/AInB82evYstdRxtDy1RuulpruOtZeMlhJWt8Fdowhagd5Q9eOntdmKz1Wp4AjPa/D6d+xhS1JBitJK2hxvkVinYFqC3Bxeu1Kr53kY5o0OwspYB1Kr7fT62TJArgkg5VULZvSVba7/gviReQTjV8C7E5haqsVrpQTKWC9CbyVXkcti2SwkrSK5Y/dryFQbQIuXfbaTd46pfo5mYLWG8tep9fzA5e3iEoyWEmV1OL8vABrsAu4jHxJvT3krVFqrreBg+n1Onl3oiSDlaQBdgN7U5jai116WtkJ4EAKWQfIW7hG5hOHksFKKp01PrG1C7h82ctuPa3HSWD/stehte7LDoSXDFbSVK3xCb6NwBXptY98qgNpUo4ArwGvpteZtYSrLYzhsUXJYCWpKEytYbzUnhSkrkxhSpqV14BXUsg6OOo325IlGayksYSpzujfclV6XUk+HYJUNkdTyHo5vYbezZ2oVDJYSSOZI59jagSbgKvT6yryhYalqjiXwtVL6TX0tA4OfJcMVtJAS61TQ3Z5bAWuSWHqGqunGnkxBawXyZ88lGSwkoawcyccPjzKd2wBrl0WqKS6WwpYLzDkGHa7CiWDlbSS+RSmrkv/Sk31AvB8+ves5ZAMVtIorlv2cvFi6byFFLCWXqvyiUIZrKQaGeGkvgd4F3A9sM3KSas6DjwLPMcapnCQDFZS/WxOQep68mVkJK3NgRSyngVOWQ4ZrKRmuQq4IQWqtuWQxmYxhatnyKdxkAxWUpXEGAlhqN14SwpT7yZf8FjSZL0JPJ1C1lBPFa5hUl7JYCWN0xBjqPalMHUDDkSXZmEhhaunyZfWWfWYBge8y2AllSlMZcCN6eUafVJ5vAY8lV5mJxmspFlpkw/eWCVUbQduIm+hcp0+qbyOkrdgPQkcG8PNlGSwkkYJVKu4LAWqm8iHaUiqhk4KV08Cr1sOGaykCRriLvXaFKaus1pS5T2fAtYLlkIGK2m6bgRuxvFTUh29BjxBPg5rvTdfksFKGqCVwtQtOF2C1ARvAo+nkOUsDDJYSWMyl8LULcAuyyE1zqEUsB4nn7pBMlhJRWlplTPk/LJAtcOKSY13ZFnAOms5ZLCShrMBeE96OWWCpF5HgcfS65zlkMFKjTTE0jPtFKZuxRYqSas7AjyaAlbhrCxLg9tdKkcGKzUpUJHC1K3AxVZM0ojeTgHr0UFf4NODMlipFoa4S7wRuA3YY7UkrdNB4BGGmKZBMlipbq5NgepKSyFpzF5JAWvgRKMu9CyDlSpjlSb3y8m7/G6wUpIm7Bny7sH9lkIGK1XKEOOodgC3k7dSSdI0PQI8TD7YfdSbQclgpelb4cQ0lwLV7cBmKyVpRk6lcPUwTjIqg5Uq6kbgDlx+RlJ5vAk8hAPcZbBSWQzR7Xd5ClTXWS1JJfV8CliOv5LBSqW1JQWqOzj/0I0klVU3hauHgJOWQwYrTU2MkVYIKw3wvAV4L7DTakmqmMPAg+RrEBZygLsMVpqWvSlQ2e0nqeqeTwHrgAFLBiuN3SqtVBuAO8m7/easlqSaWCDvGnwAF3iWwUrj0k53ZQNC1bvIW6kus1KSaup18tar5yyFDFaalO3krVS3WgpJDfEoeevVsaJP2jWoIi1LoOUniVj8qZuAHwOutkqSGuRS8jVNF4G3ej8ZVz93qoFssdJKd107yVupbrZKkhruCfLWq8OWQiuxxUqD7rRuIW+lutIKSRK70/mwQz6Du1TIFqsmBqmVn/jbAdyFrVSSNMgTwP0MWNhZzWaLVQNDVQhhUCvVjeStVFdZKUkaaDdwBfn0DG8P+iLHXjWTLVYC2EreSnWbpZCkkTxC3np1oihYgU8OGqxUO6ssnHxdClV7rJQkrcnBFK6eH/QFbfJHC2WwUg0MeOqvnQLV+3DRZElary5wXwpYi0Oeh2WwUlUstVINOJj3pEB1rZWSpLF6IQWsg0XhCgNW7Tl4vaahqpUGqBcMnHwP8KPY9SdJk7CT85OKXjAtw/JzctuAVVu2WNXMJuB08ac2k7dS3W6VJGkqHiZvvTrV+wm7BuvLFqua6VLYSnUF8BHgBiskSVOzh3xqhpP0rDe4/Dy9AzhjrWrDFqsaWOWpv9vIW6q2WClJmomT5C1Xj1gKg5WqaxNwN3b9SVJZPAzcS8GIjSxdkDvWqPLsCqx4chrQ9bcX+BHymdQlSeWwB9gFHKdnQtGYgpUztRusNEOLxQfhjSlUXWaFJKl0dqSb33P0LIezdD53KZxqsyuwYpamUoC+J0oC8H6c8FOSqmBpQtEfmqPqxRarioWqUDw/1UXkrVR3GJYlqRICsA/YBhwCzg66SJu6qrdhVW37yAepX2EpJKmSXiUf1P5a0Sed86pabLGqthuBDwOXWgpJqqzt5ONi+8ZdgS1WBitNy13k3X+bLYUkVd5G4KqUow5YjuqyK7CkVpj0cyP5IHXnp5KkenqYfFC7E7JXkC1W1QpVu8i7/m62SpJUW3vIuwcPM2Ay0Q04majBSusNVftSqLrGKklS7e3i/GSixy+4ThiqDFZad6i6PoWqPVZJkhpjO/nDSWfIp2S4gBOJlpNjrEpkwCO1t5KPqXKQuiQ10ynyMVePWorys8Wq3KHqbuAeYN4KSVJjzQFXpv/ebzkMVho9VM2lQHU3Lk8jScqvBVek68PrOGeowUr92unI6Okj3wJ8CKdTkCT12wtsAt4EFixH+TjGagZWGKS+k3w81Q1WSZK0gmfIx10dHvE6I4NV/UJVO4SiR2UvTaHqGqskSRrCiylcvdH7CdcXnB27AqccqkIIBPq6/y4nH1N1lVWSJA1pR3odo2CuKxmsah+q2iEQ+3f4q1Ko2muVJEkj2k4+kegJ4KjlMFg1JlSFFKp6XAd8kLwbUJKktdgKXEy+/M1hy2GwakSoKnA98IF0MEiStB6b0/XEWdoNVo0MVe8mb6naaZUkSWOyCdidwtXbF1yPrI3Bqg6hqlXc/XdTClXbrZIkacw2kg8vOQu8ZTkMVrUJVQOe/ruZvPtvm1WSJE3IPHnL1TnDlcGqFqGqlUJVzxwitxiqJElTDlcL5LO0y2BVzVDVTmOqCkLV+8mf3JAkaRo2rBSuHNBusCp9qArF81Qtdf8ZqiRJswpXfd2CS9eqLbjooMGqpKGqwE3Y/SdJmn24uoQBA9oNVQarUoaqgibVpSkVDFWSpFlbGnN1mp6pGDRemSVYn1A8pmpp8k9DlSSpLLala9P1BoLJscVq/K5LO66Tf0qSymYj+dqCp+hZ/saB7AarMrqKvPvPZWokSWW1Kd38H6dg4WafFjRYzWSPXOz/8OXAPbigsiSp/DYDO4AjKWC9w1BlsJq6glB1aQpVe62OJKkitpIvr3YIOGk5xsOxaiOIMRYVbCf55J/7rJAkqWL2pWvYTkPCeNhiNUKoaoXQ+/TfFvKWqndZIUlSRe0gH9T+Oj3TWtktaLCaWKhamlV9mTngQ+STgEqSVGUXk08k+hp9MwjJYDWBUFXgHuB2KyRJqond5L1/r1gKg9W0Q9Xd6SVJUp3sJe8B3G8p1sZxaSuYLw5VtxqqJEk1dne61mkNbLFaQaf/Q9eTj6uatzqSpJrKyKcROkE+FYMMVhOxD/gw+ZwfkiTV2Rz50jeH6ZlA1JnZV0+lWibGwt1lF/k8H7uskCSpIQqvfUuPDLatTyFbrHpCVat/WoWN5C1V11ghSVLDbCdfye01ChYeseXKYLViqCqYqwryMVU3WyFJUkPtIm+getlQtTq7ApMNxU8A3oVzVUmSdHu6JmoVtlglBdPM3gj8iOFTkiQgn+PqBPB27ycc0H5hLRptwGD1feTzeDg2T5KkXDtdG/f1fqKLLTVLGl2HATOrX0Q+WP1Sdw9Jki6wEdhKvmDz2QuuqeSTPHYaXqBGt1iFEHoLEFIav8JjR5KkQleka2Vfy8RZa2PLXU9H4AeAO9wtJEla0SXp39cshcFqkKXB6sFSSJK0qr3ks7K/bSnOa1xX4IDB6nvJmzV9AlCSpOEzxN3pGtpnrqFFaVSL1YDB6pvIW6ou8xiRJGkkG4HNwCs4M/s7abMxQvEkoHcDV3tsSJK0Jlena+kFujSzG6jpY6xuIx+wLkmS1m4PcAZ4Y/kHI82bPLQRYTLGWPRGrwDe57EgSdJYvI+C6Yq6NGu27dq3WC2NqwoXJubNwEc4/7ioRhdSMA/p1c0ghvOvECHLIIvnv4Ys/7gkTfNctfx8laUWlAvOWel81Yo+Gb4eG8gnD30FWOgNV01R+xC5MY2r6g6RqjW0LnA/8EqMcf+qZ7UQtqYQuyODXV3Y2YKLOvmDA0utxOYtSWuWpQCVzvXngBMtONSBo8DhrfD28RjfGOJ8tR24HLgjg91dz02jWuoN+nbBNmpEwKp1Mh/wFOB7gJ9w31+7Fry4GOOfjWUHDGHHHNzQhWs6sC2DTV16GxglqfD6FVKIOkU+tue5GOOzYzvXhfBvu81qbBmnbwCPNfGN17bFakCo2oPjqtZ9Y9iBe8e4nY4AP0yvpbD1LuAu8hau+XRWM2hJCuRL0Z1pwwsLMX5jkr+sCweB3ZZ9Td4HvEVeQ4NVLY6+/lDVTht6m/v7upyKMU70QIkxPgc8t/T/N4RwzwLcCsxl0LJpXmqcDnAY+Makzz89HgE+5o3dmmxL19y/omd+q7p3CdayKzDGSCuE3g33AeD97uvrMwffPRfjAzMMzNcAHyWflM5BplJ9xRa8vBjj/5nlH9EK4be8mVuXHwI/aNIbrl2L1YBQdR12AY5DtgDPzHj7vgj8bgpZ16e7ybabRqrBCSYffP4a8OcxxrNl+Ju68DxwrVtnzZa6BJ/v2da06Hl00GBVTgVdgFvJx+u4DuD6HYsxnihRiH4WeDaEME/eVXhPOjF7dylV6LTdgiMd+HInxpMl/PseTTfnnlfWnJe5i/zhghPLAmtt1SpYXQG82v/hu8gHrWv9Stmcm+5s7wPuCyHsIu8q3ItP80ilDVPp+Pwe8NRiOQPV0vnl5RCcfm+d9qRr8beWf7CuJ+jaBKsBTwHeSL5sjcZz1/FyBfaDQ8AfhRC2kLdi3Y3TN0hlOo8cBb4eY3ytQn/308C73Xzrchv5E4JPFQWRRYNVCW9/+kPVjpSQNR6nY4nvKgsC1kng+8D3N4bw7kW4pwMXYSuWNJNA1YanF+F7McajFfz7H0036t6grc9dKVwdWf7BxZq9yXbNN+Au9+Ox+fuq/uFnYnwaeDqEcBXwQeAyA5Y0+fvdDLpdeCzG+M0qv5EY44GQ370brNZnV7o2/01f8q7RSbnywWpAF+AtwM3uw+M7QVKBbsAh9pWXgZdTN+EnyPv9PVFK4z9fLAAPd2L8+xq9r1fJl7rR+twMvA48vvyDdbrTrXywKghVO4E73XfHnUni8Rq9mZPAH6b959MZ7LH5ShpLoDo3B/eei/H+Gr6/bwH/zM08FncCB8gnfa2dSgerTcDp4g22w/12rJ6vcWL8I4B2CP+0ky9d4aSj0uiBahH4TozxkRq/z1P4IMy47EjX6lp2CVY2WA3oArwJuwAn4Rt1f4OLMS61YH0mgx22YEmryyB280D1YN3fa4zxdAihg3MijsvNwH7gyeUfrMO5t7LBqh1Cb7Ldjl2AEzuhNOi9/n4KWL8KbHbrSwPd24nx+016w214ZBHucNOPzZ0pXB2r2Q1HNXX6k+2d+BTgJDSy8SbG+EXypXPOugtI7whteCDG+NuxYaEKYBEecBcYq13UsEGkci1WA9YCfBf5ZJAav6ea+sZTS91/DiFsBj6XQdvlctRQGfAS8NcLDWrBLjgnnCwYgqL1uZX8icvnDFYzsqE/VG0A3uu+OTHfaXoBYoyngH8fQriZfLkcqSkC+UzpXy7TOqEz1iFfP1jj817gFeBcXe5CqnSBK1oJ+07yCR81kZJHu8LOF+OJGONvt+FhHMCqGsvS1AnA/4kx/ldD1QWetgRjdxkDugSreKKtVItV6B+wvhcHEmrKFmL8dgjhoRb8dCefZNSHCNdw4e4WX8xHLubyE+/yrtqs5/9r+FNtBvd3YvyupSj0A3z6fBLuIJ+I+kDV30jlugJ7TrrvBebcHyejBW9bhWIxxmPAH4QQbsjgJ4ENTbuI94Sj0HOYLgILLVjs5LNwL6b/PgssdPN/zwJn0it2z3cDnON8iwnp68Ky3zPHli0Z3W6b06db3TxDzc1DiNA+l09xN9+FjS2Y7+Tfswlot2Cuk3fjzKVXa+ln9wSxxgWyDLIu7I8x/rFH+IrH/omCcb5av7l0TT/Qe82v2txW7YrsyIOWrbnOfXFyF80OPGglVt03nwGeCSH8wwxuqFG4Cj3/vTwsnUth5wT5Y9JH0utwGo9WvTcbws45uPhsPm3LDmBrK59uY74DcxnMdc+HsFgQxKq+rc904asxxlc9qoe6wY84mfAkXJeu7ZVe7qYSwaogVG3BAesTP3HEGJ+yEkMHrL8E/jKE8Dnyi3PpL7jLW5zSYrmLKTydBN4iX4X+QIzx7QZsv8MMubxGWsx7bxcubcHODmxIT4wOav0q8z5AFx6p+iLJM3CGvBVU4/de8idQTxbsqwarMZ3wiqZXuIN8TUBNNFtpDfvrfwkhXJ/BP+iW6I42haiYtmsXONXNn8J51laKkbfxy6ywKHkI4dZufue9J4OlrsqwbBuUxYlOjL/nFl3ThfP5RXiPlZiIneka/93eC1KL/JHMsit9U2ZBIS8H/jE+lTVpizHG/2AZ1nFwhfBJ4MpZXf/THd6hOXhmAR6PDZ5/qCT7w9423L6Y7xMbigbwT9EfxRgPulXWvC13ZPBZH46Y6I39/yaflb2KwbvcsbWgbf4OQ9VUAu0Zq7DOZBPjn4QQtgOfneRNTLpAL5JPsvdwalFR+faHA/QMzA0hzJNPkHgj+SzUk75Q748xftmtse5teaQVgqFqcrJ0ra9ksAol3nGLxlbdCHzcfW7ie3TI4MmFGL9mNcZ2h3sPcPd6LpxpOoIAdAO80oEHr4A3X7Elqk77yaa0jW8hf6R/R9pnxnER/28xxqNWeWzb6je9yZ+4r1HB1T/aJd5pez80h3NWTUUahPOslRjrjcL3QgiPAp8Z4bhbClLH5+DJhfwEc8pJW2u9nyyF5HvTixDClk2w8xzc0YGrgHaWT08xTNgKbXhiIcavW92JnCoNVpN1B/A8FM0NbrAa9eRSFKxuB3a7n01tG7xoFcZe0xPAfwghvA/4UG8rRJpHCOD1DfDoOTjkOBjFGE+SPyH16lLQ6sIlwNXA9eRPSRe1anWA/7UQ4xtWcSLOUsG5ICtmd7r232ewWqeCULUjFVfTuxPT5C6U94UQXgQ+CWwlH0r4/Dy8cirGV6yQhgxaLwHfSt2H17Thyi5c24UNbXjcVqqJeyOD6xzAPnG3ky/QfKQqf3Ao4UmjaHqFHwNuc/+aGp8IlCoqhDBvd/FU6nwH8KMYrKbhEeBbyz+QpQBTxukXshLurL0futxQNf1gZQmkajJUTc1LlmBqbktZ4B3dEifarGQnhKLZVW91nzJYSVLJrldHrMJU9WWBpUlDDVYrCP1dgNcCN7g/Td0pSyBJq3I86vTckDLBBewKXDn9F/0xdgHOIN+2h1wzTZKaLDNYTdttFdkvyqHd31p1I7NbDqTZyapCT19I0gwZrKbrypQNDFariTEWNefZWjUjCwYrSRrmJtRgNX23lTbMlOlvKXgS8FZgj/vPTHaIgF2BkrSqTjmH+NTdHgYMZDdYDdbGJwFn7YQlkKSVtWyxmpVbKZjgvCyBJivhH/Ae4GL3m9no4jw4kjSMjlPTzMrFKSv0Xb+2Gqz64v4GbK2aNWcRlqTheBM6O7emzHCBMnS3lK0r8D3k6wLKHUKSyq6TlXBpuIbYQUGrldfRC82XtUhN4oKikjQ0z5ez9Z6UHUoVbMoUrG4BLnI/kSRV515UM3RRyg6l2ihZSX7xXFFxJEkyWGkFt6QMURpZSfbGW3BsVbN3CEmqHrsCZ28HJWuYKcN1tIWtVZIkg5XW5paUJZoZrAre+c3ALveLcuj6hIskDWveEpTCrpQlmhmsOsVJU+VhsJKkIYOVT1KXxi2lCDnMvivwRmC3+4MkqYLmLEFp7E6Z4gKzeLpgasEqxsJQf7P7QrlkQAhhi5WQpFXZwl8uhZli2oOvphas5kLo/WXXAvvcD8olNWtvthKStKqWJSiVfSlbXKBTx2AVY6RLX5PcTe4DpeXDBJK0eqoyWJXPTUVBZ5obairBKoTQG6ouA65z+5dTGy6xCpK0so5T/5XRdSljvKPLdFutJr5TDBhbZWtVSWXAopO1SlIprqFak5tqvVOE0De2b7vBqrzSGKvtVkKSDFYVDlbba7tTtIrfsP3SJdZy0jtJMlhV+jI2uwacie4UMcbemdMy4N1u89JzbhZJWkEIYa9VKLV3zyr4TvSXtvu7AW8ELnJ7l1vHFkVJWs21lqDULqJgwtBKB6sYIx36pli40W1dCQYrSVrZPlzOpuxunMUFbmLBqmDQ+j6cELQqQghho2WQpIF3nz49XY3w25c7Jj31QjbFH+zYqmpxcWxJGiDasl8VU88eEwlWSzOtL7MFuMHtW51zRssgLEkDdX0isCpuSBmk2sGqYND6DfikWdXuxnzIQJIGXzwNVtUwR0HDTjbZfWPMF+T+KRbA1g/vxiSpJkIId3UduF4l7y64xk2sLzebwA7X2w14FbDb7VrFGzJJUgFXD6mW3SmLXGBSyXgaF0/HVlUzVYUQws1WQpL6+ERg9fRlkW5Fg9Vm4Hq3Z/WkZu47rYQk9d94WoXKuT5lkmnsH+PTLn4jbbend2WSVAchhE1dy1BFbabU0DO2YBVjZLE4WKnC5xBLIEnnteDjVqGyrp9YCJrEz9weQu8P2wO4SGX1786usgqSlOsUDIJWZexN2eQdk2h9HFuwOt7/B77LbVgLP2oJJAlCCPNWofImnk3GEqxiLHxo0W7AethpCSQJgMssQeUVZpNxzmk1lmAV+rsBrwO2uf1qIbogsyQB8FFLUHnbUka5wDgXZh5LsGrR1w14nduuVn7CEkhqshDCfAZbrUQtTDSjjKcr8ML/O2+wqh0neZXUdLu7k5tTUtMPVn3j5cbVHTiJJw2vxQWXayWDuD2ES6yEpKZq2Q1YJ3Mpq1xgXN2BYwlWdgPWWxficZ8OlNRQIYRtHbjIStTKxLLKuFusthSlQNXCFZZAUkNdht2AdXNtyizlC1ZZ/x+qmsnyzfwlKyGpiWKMz7Rgv5WoZbgqX7DqifDXuJ1qJ3ThKzHGNy2FpKZajPHLwCkrUSsTySxrDlYFk4JuBa52O9XO92KMr1gGSU0XY/xiZpdgnVxNwRQa621xWvP3hxCmkvw0GxmEFrwcY7zXakhSrhPj71iFWunLLutNzmsOVq3i5KeaCHByMcY/tRKS1Mcxp/Ux9uyypmAVY+yd72ETtljV6qZsMcYvWgZJKrwGvj0HP8ggWI3KuyZlmNkGq7n+bkBbq7wbk6TGOBfjD7tw0HBVC2PNMGsKVosT/qM0M4F8sPoRSyFJK4sx/mHXJwUNVusNVgVPA7aAq9wutfBqjPE+yyBJQ18Tf9cqVN5V9AwdX8+TgSN/b8HTgFcBG9wu1ZbBQozxK1ZCkkb2DewSrLIN9DQQddcRrsaxpI2tVTXIVV3HVUnSmsQYHwOetxKV1pdl1jrtQjbizlP04SvdHpUWgG/FGI9ZCklac7j6c+CclaiswizTmnSwKrAHV/yuukMxxocsgySt2x8ynp4gTd9FKdNcGJgnHazmQuj9hivcFpWWAX9sGSRp/dIT1T+wEpXVl2nW0h04UrBa7P8ldgNW21/GGM9aBkkaW7j6PrBgJSqpMNPsnFSwKhhftRHY53aorBMxxqctgySN3X/FpwSraF/KNhc4PKlgVTDNgt2A1b6r+j2rIEkTOb+ebsMjVqKS1p1tsln+cs3GHDgJqCRN0EKM32RtY5/VhGA1YJoFuwGrqXMuxu9ZBkmauD+0BJWzb01BaR1fv2QXsMP6V0taLPT3rYQkTV6M8U3gtJWolB0p47xj1CcDhwpWBeOrLrf21dOFozHG41ZCkqYWrn7Xia0qZ10ZZ6jt3RrzL9XMDvD/ahUkaboCvJr5lKDBatnFmI7BqtLSAf2KlZCk6VuM8X93KbqUqpHB6rL+bsDdwBbrXindGOOfWAZJmo02PImtVlWxJWWd0QLTsF93sP9De615pYQMHrcMkjQ7CzH+Lc7IXiVrzjprGVN3mfWulMWFGL9hGSRp5u7FVquq6Ms6wz4duGKwijEWfYEtVtURcDJQSSqFGON92GpVFZNpsQq7+7oYdwFbrXeVjuP4Q8sgSeWQVr6w1ar8ttIzn9VYghVvvdX7EbsBq3cAS5JK4lyM9zL6nJOajTVlnlXHWPVs/T3WuTIyl66RpFL6jiWohD0jhyZGH7xusKqO8md/pwAAIABJREFU+y2BJJVPjPEh1r6knGYYrIZpasxW2PC9H9oEXGydKyEDHrQMklRaD1uC0rs4ZZ8LtNcarArWB7zUGlfGwRjjScsgSeW0M7/5tdWq/Pqyz+Jag1XBJw1WFZCWr/krKyFJ5XUoxqMtOGwlqheshrgOF2vR15dosKqALizGGI9YCUkqtw78hYszNyRYFYyvgoJ1c1RKtlZJUgXEGN/uQrQSpVaYfeZGDVYpSS93ES68XAUBOGAZJKkynG+w3LakDHSB7qjBqmDg+iXWthKOxRhPWwZJqgynxim/vgzUGTVYzQ3xQ1VKX7EEklQdMcZzq1ynVcJgxajBqqCJy/FVlTg+4zHLIEmV83VLUGq7hwpPK32uIDo7MWj5vW4JJKmSd8XPOKFVqY2UgbKCDdz7oS3kqzyrpDIIMcb/ZSUkqZq6sGAVSmsrPQ/wjTR4vWDguq1V5Wf/vCRV2w+c06rULl41QK3ycYNVte50HFslSRUWY3ywO9wavypJsOoOG6xa/R/cZT1LLQB/Yxkkqdoyex/KbNcI27Ff12BVJZ0Yo5OCSlL1g9WzdgfWLFjFGIvi8k7rWWpnLIEkVd9CjF+3L7C0hs5Cq42x2sHKS+JotgLwkmWQpHrIYNEqlNJcykQXaK0hWNlaVe4DMAB/byUkqR664LJk5dWXieJqwapgqoUd1rHUB+A51waUpFp5BsdZldVQmeiCYNVa4w/RzBy3BJJUHzHG7zqAvUbBqmOwqpIAvGoZJKleunDOKlQjWHVXC1a2WFUuWD1lGSSpdk5ZgmoEK4ANg4JVwRqB88Bm61jem5oY40HLIEm186bdgaW0OWWjC5wbFKygryvwImtYaictgSTVz7wD2MusLxtlq/z/5bZbv1J72xJIUv2cifE5Jwotrb5s1B0UrAqmWjBYlVcA9lsGSapvvrIE1QhWtlgZrCRJ5XfCElQjWA1ssWr1p6xt1q+8XHhZkmrtkCUopVWz0TtZqtOfugxW5eUcJ5JUb2/hAPZqB6u1fLNmo+WM65JUd/sNVhUOVgVzWG0G2tavnDr5nYwkqaYc7lFabQrm+Gz1BqsCW6xdOaVJ4w5bCUmqvUVLUEpbeq7LxCGC1VbrVk5dYB6OWQlJqj2nXCinrb3X5d6gVTSHlS1W5RXacNQySFLtucJGOa2YkewKrKCdBitJqj0fVDJYaUpeifG0VZCkeus4nrYywapbFKx6EtZm61ZazmElSc1wAqdcKKMVM1JWlLYMVqV21hJIUiOcsgQVDlY9Nlm30vIpEUlqxtX7NLZYldEmg5V3MJKkitmQBytVLVgVzLo+z4WTiMpgJUmasiOe78uqlbJScbB653/O22jNSu2EJZCk+osxnsOuwLLa2BumWsuDVddgVSVOGCdJzdG1BOUPVgCd5cFqtS9WeWzwIJOkxsguXIZOJQ1WhfNYLTNvvUp7gAXvXiSpObqe88tqvuAabbCqonPnWxslSY3IVqpCsOouD1Y96WqD9Sr10eVBJkkNYVdgaQ3MSlkIYegvlncvkqTpCZ7zKxOsVuoKNFgZrCRJnvM1QrC6IGB1DVaSJJWOg2orGqx6zFmvUsssgSQ1Q8sJQsuqLyt1V7hIt62XJEmz1zFYldXArGSLVfV4kEmS53zN1sCslLVGSGHyIJMkTU/mOb+sBrdYdQxWVTrAlv0jSaq7rsGqMsFqpekWWtar1Nw+ktS4e2qV/VrcNVhV8s4lepBJksFK5QtW72ywzI1YKRsMvpJksFJpt0vWHSGFSZKkqXKMVTm1RklcbsQSOwdbrYIkSeUMvNmQH1N5bLQEktQY0RKUUjbKJ2yxMlhJkmYshLDFKpR38wwMVpnBqmrmLYEkeSOtkgarrsUxWEmSymiDJaiOlSYIlQeaJGnGNsJGL9LVMk9xV6DKv90kSTV3BjZ2HbxeGV3y/sGirkA3YrnNWQJJaoRNlqC0CrNSoLgr0GBVYpmLZEtSU2z0mlytYHV6QLByPHuJ2SwsSc3QduhHyS/HxWyxqqAQwnarIEn1FmGbVSjz5hkQrAqSVcd6ldtml7WRpNrrwGarUObNMyBYFXzMrsCSp+RTBitJagIHr5fX4K7A7ggpTKVhsJKk+nOMVXkNbrFqGayqJnoXI0mN4PQ6VQxWBZ9ZtF6ld5ElkCRpZvqy0jtL2rQMVlXkU4GSVGMhhL1WoVrBamloVVGL1YL1KrcWbLEKklRru3D6ozIbmJWyYVKYyqXjgEZJqrV2HqxUXoO7AkdJYSoHl7WRpNpftbdhi1WZ9WWld7oC5/rT1TnrVW5diCGE3VZCkmrLsbTlNjArFc28brAqvwjssQySVFvOul7VYLXBYFU5GdAGW6wkqb42WoKKBqtjMRqsKqYLcdG5rCSpzlqWoKLBKl2olztrvSrBVc8lqYZCCFdklqHszhYGqqV/M4NVFdn/Lkl11G5f3fWJwMoFq+7yYNXTYnXGelXCBksgSfXTWly8DINV2fVlpZXmsTJYVUQI4XKrIEn10nF1jcoFq4yeFiuDVSVF4CrLIEn1kvlEYOWC1fKevyyE0PvFZ/PArAoEq32WQZLqpetQj7LrUDDGqn0+GBc6bd0qwScDJalGQgjeMJdfYUZaXB6sMoNVVdlcLEn1cqMlqGawYnmwCv0fP2XdKmHOEkhSrVyBTwSW3anCMLX8vzv0tVoZrKohhhBuswySVBvzlqB6waowZPXMZXXSulUjWLXgJssgSbVhT0T5nVw1WG0a8ZtUHh3YbhUkqfpCCJcw+KEylThYdXuD1an+hZgNVtXhY7mSVANtuMtUVc1gRW+wKnDCulVGK4RguJKkiovgGoHVcGKlMJWtJY2pPNIG/JCVkKRq65yfY1LltnqLVQih6KnARWtXfunu5norIUl1uVdWiS1S8FRgt2gjdvu/+bj1q8yRaFegJFVYCOEDVqESjq+WhrNRvlnl1PUuR5IqrQW3WoVqBquuwaqe5kL4sFWQpGrquERZZYMVIwSrY9avOhbBGdglqbqCJaiEVbPRO8FqW3/KMlhVS8sSSFIFE5U9DvUMVsdi7O0nNFh5tyNJmrzbLUF1g9Uog9ePWr/K3fX8rFWQpEqdtzdgj0OVHO0NUQMHr4fQ1+BxllVWcFbpXG0JJKlSdlmCyjiVstE7CqaqurDFqiAyH7GOlbv7mbcKklQZP2EJKqM4E23aNDhYDf1DVGY3WgJJqozdlqC6wSoDOH16cLDqGKzqwKdLJKkCLgphF8W9SapIsFq1K3CTwaoO2iGErZZBksrtGPyIVah2sGK1YHUqxt7PH7aOlROByyyDJJXeNZagUg6vGKJW+FhvOluwlpXzUUsgSeUVQtiXboRVDQv0tFgVTbXQF6wKplwoTGgqtwzmQ953L0kqoRZ8wGBVKUNnoWyIrzlkPaulm4fom6yEJJVTB66wCpVyqOBaO1ywahus6uK9lkCSyieEcDO2VlU+WDFssFrs/5q3rWclZSGEayyDJJXO3Qaryhk6C/UFq9j/ZKDBqppiC+6yDJJUHiGE7cAOK1H9YJUNG6wKBrCfBE5Y0+rpwD6rIEml8kGcFLRqTqQsdIGhx1hB4ZqBtlpVUAYxhPARKyFJpXG9Jaicwgw0P0qwKlja5k3rWj1diBm8x0pI0uyFEN5HYduFSq4wA50dJVgVeMu6VtaGEIJTL0jS7N2Og9ar6K1RwpPBqubSnFbvtxKSNDshhJ2A67jWJFgxarAqeDLwKAUDt1QZO1yYWZJm6mdx0HoVnUwZ6ALdUYPVgKVtHGdVXd10UEuSZuMiS1BJI2efbISvfcP6VtrFlkCSpi+E8M9wbFVVvTFqcDJYNe/gliRNUeaNba2C1WraBisPbknSxG5of8kq1CtYrTZQbpQWq9M4UWildT3IJWnaN7SXWIXKejtln1G3+WAFs5gdtM6V50EuSVMQQvi0jwFW2poyz4rBqmOwquvB/stWQZImbo8lqFewGqabLxvxl7xunWthZwhho2WQpIndwH7GKlTemjLPisGqYKLQQ+SrPKv6HGslSZMJVTsy2GklKu1EyjwXbtv1BqsQQtEXHLDetbB1awg2U0vS+P1i13mrqu5AUWDqrDdYDfgCuwNr4iR82ipI0viEEK4B5qxE5a0566warBaHSHGq9EngLqsgSWPj8mH10Jd1hn3CM1vDL3sTF2Sukx9xgWZJGsuN6k9hF2AdnGQd6yNna/y+/da9NlygWZLWG6q2bt2TwU1Wohb2rycsGawEcMnGEG60DJK0RidP/mx3+N4iVSxYjWKoYFUw7YLBql7iWfiYZZCk0YUQfhLYZCXqG6xGScxrbbE6BByx9vU6N7RD+CeWQZJGClVbgPfg2Kq6OELP/FUZhUv8rS9YhVA4JdZr1r9eOnB5CMExApI0vH9uqKqVvmzTZbj5q0YKVgO8av1rpwt81DJI0upCCJ8AXB6sXtadbYYOVgXjrAxWtT1XhF+1DJK04olyE3AdtlbVPliN2gKVjbAT9X7oDHYH1tWWEIKD2SVpsF81VNXOaynbXBCSRn3UM1vnH/GK26GWInCTE4dKUr8Qwq8x3Hq8qpa+TLOW+TNGClYFHcl2B9bb5yyBJJ03F8KHcVxVXa27G3Dk7zkdY+83HASOui3qe2PWCuHzlkGSIISwexHutBK1dDRlmnXLRtypiprF7A6ssS60g/NbSTJUbQR+0UrU1isDroGTDVYDvOz2qL29IYS7LYOkBvsVS1BrL48rII38fbG/O/Bl4JzbpNYi8KEQwjWWQlLTpCloWlaits4xxkaibA07WO+HOthq1QRd4GdDCNsshaQGhapPAZutRK29TMHk6mtdUXtNLV2h/xtfcrs0QgQ+l8YaSFLdQ9VPA/usRO2NNcOsKVh1+pOcwapZfsUSSKp5qPrJDG7ASUAbGazWMwA9G9MfdRp40W3TGK0Qwr+2DJJqGqruyeDW7tp7g1QdL6YMc4H1bPhsjH+crVbNMme4klTDUHUXcLehqjEKs8sVJQlWL7p9GhmunEBUUl1C1e0ZfBi7/5rkxaJgtJ5lZcYZrE5gq1UTtUMIv2EZJFU8VN0N/GjXUNUkL6XscoH1NlWuK1i1hkh+aoRWy3Alqbqh6gPAB61E47w41lA0jp/R6f8BL7idmqmbh6vftBKSKhaqPgF8wEo00kQyy7rDWU+T2UnDVaPDVRZC+EIIYZPVkFR27RB+AbgOu/+aGqpO9gaicTyxsO5gVdAd+Lzbq9k3gBn8egjhekshqbQnqhD+RYTLDVWNNbGssu5g1aawO3DBbdZc6THlnwkhvN9qSCpZoNoYQvhXwHYHqjfWAgW9a+OaX2Pdweps8YdstVI3g3tCCJ+0FJJKEqouBX4N2GA1Gu35ovjSLkuwgnztwII/Wk1PVvkNwJXtEP4v1xeUNONQdVcGv2QlVJRRMmCxTMGqU/xHH3fbKe0fm4BfCyFstRqSpq0dwmcz+LCzqStlk4k2/mQT/NnPuv3Us7P9iuOuJE1LCGFDCOELHbjI8VQalE3G9TTgNILVc24/LZdObB9IA0claZKh6i7gX1E4WkUN9lzBtWncjQgTcxA44DZUgQ1pvqsrLYWkCYSqXwc+ZCXU40DKJhMNQdmEf5jdgRp47gP+cTsEB5NKGlegujmE8AVg3mqIITLJJAbdjTVYbSx+E4tuSw0QI+xuhfAb8yHcZDkkrSNUfRb4GHb9qdgiA8ZXTaLVYNI+BnjR1GoJP+vCwRjjH1gNSSMEqg8APhSj1TwJfH0q++QUfsdVwM+5TTWsOfj+uRjvtRKSVghUlwGfADbjE39a3Z8CL1cyWMUYCaHvx/4isNvtqhH2yxPAX8cYX7McknpC1cczuNl5qTSkN4Gp9Ya0J7DDF334aYOVRsnnwJYMfiGE8DrwZzHGU5ZFanyguh34caBrqNIIni764DyFy/KNpWVg7ObIZ2NfttdvAT6TPiWNKgMeijF+y1JIjQxU12XwCSf51BosAL8PnOy9qEwqmU/z6YmfBG5xG2s9++s8/OWZGJ+xFFIjAtUu4J/goslau8eBvy26W69DsNoH/LzbWOuVQejC38UYH7QaUg0D1bZtuzlx4tNMdhJrNcNXgKmO1Z1YsBowiP3nU8CSxrKbAY/EGL9tKaQaBKoQ9gCfAlpWQ2PwWgpWU9We4AFS9OGnDFYa843B7a0Qbg3w4mKMf2FJpEoGqjuAeyZ5TVIjPTWrC9PEzJGPGlsmA34ZuKgBF/yl1wJwpgWngZOdfFz/ZmBb+jdLbd3RgZlrl7oHuy14ezHG/2lFpEoEqo8D16dA5flP43QU+O/M4OnRiY+xKhggVstZctPM4QspIb8EvB1jPDrkyWU3sAO4pgVXdmBrKpsnmrXv14fJx2G9ZDmkUoWpLS346Q7sSZcIz3OahB8CP+j9YIu8daPSwarAdvJWq7r0oYcWHOnAd2KML4zrh24M4d1n4V3ANeluzjlb1pbrzwBPxxi/aTmkmQaq95M/Gb7d85kmrEPeWnVsVnf2EzVgEPtPAO+pw7kCuD/G+N0Jn5CuAu4CLvcOb03pKnTzbXUAeCDG+JxVkaYSpvYBd6YbRDx3aUoeA74xy2AwC5eRz01SdftjjF+e8onqg8BtGWxy5uE17/Nd4Ang8RjjQUsijfUcdTFwXboZ3IDnKU3fHwOv935wJ/kYkVoEq23A8f4P/0w6+Koq2wJ/eCLG12d08roa+Clgo3eBa9yA+bi4ReB7wAsxxiNWRVrT+WhbOp9/kHylEMOUZuV5YKZPiIcZ/u5ryVcmr/B1md+LMR6b6QYMYS/wjzNo+1Th+kqZ5euP/RB4IsZ4wpJIK557tgI3A+/LYM4WdJXEnwMvzPTYmHYS6TnyqjxhaAC+G2O8vyQnufeQL04aPK7WvZ+GtJ8+A3wjxnjWqkgQQtgMfAy4Op3PvZlTmRROCDrJ5WtmHqwK3Ah8vKpbsAUnF2P8/0p24vtUBvs84Y3dSeB7McYnLYUaFqbuJh+A7np9KruvUTApaMGcmvUJVgPe3C8Cu6t6zmFKa9alAaE/TT6m6iDw9Rjj6QFfuwn4VWy9mpQu8Hba9vsth2oWpG5swfs7+fBY1+pTVbwJ/EFZgsFUFTTJ3UrehVVVMcb47yZ8orsK+CT9rVCHYoz/Y9D3tUP4VCfvarX1anLHTxdYbMHpDjwcY3zIsqhiQepjwNXp3redusI9Z6hqvgk8ukreqGewKtAib7XaVeENuhhj/A+T+uHtEH6tk7dU9YbUEOD4Yoy/N+h750O45Vw+JsKBpdM5nmILznXyJYz2k0/p8LqlUQkC1AbyCTrfRT5J53wKUo6VUtUdIm+t6hiszrsD+EjFN+y5GON/mtAJ8VPkk4MO2oZ/utLSLSGEncA/x67BqR9f6e6/Qz5G63AKWy/EGN+2PJpgiNpCPv3BvnTTujWD+RSgDFGqm78DHuoNVRn5fDqNCFYFY63myFutdlR8406s5SqE8G+KPp4u3C/EGP9siJ/xOfJxE5rhNS+9InAqha03yMfNHYwxHrdEGuG8sBXY24Y9i3mA2gVs4fwKDYYo1d0R8taqhd5gNatumjK1YNwJfLgmG/pL426RCCFcAnya/lXgA/A/hv19IYRfzOBSm/7LY9n0DgGglQJXB14ln1v3CPl4Oqd9aGh42gQ7TsNF6cZoTwsujrAl7TfR7jw12HeBB8p291wW88A/JT951OBayV/FGJ+awEn2x4HrWtDqwOI8/P2ZEX9PCOHnMrjaE3E1rqvLglcETgBvka97eJg8hJ2a9US1WtcxvZ18DOXmdB68Crg4y8+F890Lg5PHrHTeUeAPgbO9F+BZDiou25ibOrVaBeDZGONXy/jHzYXw8cV8HjFVfz9bOo47wBcHTcOh0garT5JPuBm92ZFG0tdatTQ/yCyD1UznKGn1f+gx8m6POojAu1ohfL6Mf9xCjF8DHve4rMV+1iUf3/fvDFUV3IAx/glwn6FKGsmRlBku0GX2j8DPNFh1+v+Ac/TMQ1F1XWiHEH4rhHBbCU/ofws8iU8L1uDaHH/HMlR6A36XfJ1KScN5NGWG8oSasvwN3f4/4jHyWa3r1qrwY60QfiPNij4VIYSLQwi3hBA2rnBC/7rhqrqyfBv+OytRi3D1gzY8YSWkVb1NQWvVUqaYtVJcTGs4G/tq3owxTnTq/RDC57J8EsClQa8d8vmuXiv6+nYIn+zAlR6v1QpVXfhdu//qpR3CL3dgp5WQBuqbZb1s5+aZK0iYj5LP61NXu0MInw8hTGROqRDClcD27oWDYVsZfCqE8MGi71nMx3k4aWV1QlXYBf/FUFU/izH+d6a7ZqxUJQcp+ZChMi+w+Ujdb0yBfxlCeP8EfvZ1AwJsBO5Okwr2iTF+CTjjcVt6IYP73nQy0dqKMf5HXIZKqmQ2KHOwegp4pe7nzwzuSY9bj9Nqa9N9ZoXP/TeP29J7ayHGv7cM9bYZvoJjH6XlXknZwGC1jj+m7q1WdKGbwVUhhM+O8W73qVXudtsrfO/ZbfClkofuxsqgk1oWVXMnYzzQhqcNV9LKmaBlsFoxZPT+QS8AzzQgXEXgohDCr6/0BN+InlrphBxCmB/0uWP58jg++l2+gzXrwletRHMsxPhX2D0vkbLAC0Wf6BisRvZog3acefJxV+uekiFNo/DWCuEqW+X7v0e+XIrKE8BfjjG+aCUa50+x1UoqzALtct4El+7i0Ws/DegS7NlPfmUcPyjG+KUWvJBduMFDC04P8zRZjPGL9geWRogx/m/L0DwxxoOpS1BqqkdSFuizWMaTdUWKugP4FPkipU3RHeds2iGEHwEuBZ6OMT429Pdt2nQNZ878I4/rmd79hG6+qLcX1yYn6xB+C5e9UfOcAr5Mz3J3s15oeZVzdiX+sCPAw027noYQfnOMd73fiTF+eZRQBRBPn34RuwRnbdFQJeDrmV2Cap6HqxSqSh2susXFfbOB4eo3Zv1HxBi/6J3yzA7Q0M3H2KjhYoxPUL5xutIkvcmARpWtBquxWAAeauCO1Qoh/MtZ/xHtfOCgd8tTFuDMoGWI1Dxd+AtbrdQgD1GwCkEXOGGwGpungOcbuHNtbYfwczNNtTF+Cx/7nrpOPrZAAiDG+GK3nON1pXF7noLJQKsQWrIK/oEP0cClHjpwdQjhzhn/GX+Ad8vTtBjzOcWk5f6PJVDNdSnooSr72KrKBKuCWSz308wuwQh8JISwa5K/JISwfYW75WPAqx7zU/MVS6CC49BjUHX3EAXTK1SlRaX0weo0A1utDjc0xf/SJH7wXAg/1Qrh/yafoPS3QggfHXBS/wouDjuVAzPGeNBKaIDvWgLV1GEq3nhSiTFWnRh7/9CTwINNveaGED4zzh8YQviRRbixmz9x1CVvHbs5hPCFoqVv5uGvM9cSnHSCfsQqaJAY4wNWQTX1YLrGG6wmKYRQ1ETyOM0cyA6wcy6Ej43x572b4ukUAvDrvR88E+OzXXjS43+S1834LcugVRyzBKqZ59O1vdKyiv+xD1LwKGYTLryLcMtK46FG1F4l2P5swZX/r3FOnUk5Zwm0qssv/2OLoBpZYEBPVMtgNTkFrVYHaOZAdoBua0zjrVqrP759zYCFob+ETwmOWwD+2jJo1bur1147heMdVR8PpWt6X0ip2h185cbJFPzBDwCvN3Ev7MCGdgi/MIYf9cYqkw5GoK91LMZ4BPCuecybNcb4kmXQkJw8VnXwerqW99lYwTdTuWDViX1Dgc7R3IHsRLg8hLCuxakXY/wzVm95uqXw98d4AHjO88LYnLYEGvr4j/FPsNVY1fcgBUMgMqq5UG3lglUIheeQ58iXXGmcbt6a9Nkx/JzHVzpBt1dYKzDG+FWaOdZt7Ls38PeWQSOexJ2JXVX26KCb8251j8na/OEPAIcaumPOhRA+ss4736+38ubYwnC1uMpTgDHG/4jjPdadb2OMT1kGjXhTdNgqqKIOMaALsF3tm53Knkx6HRu0gRrijvX+gMUY/wh4DMiWjbkKwNEY46rj2N4D/y8rtGxpVXYDai2+h92BqqYHKJg2JKPazbB1PBg/Ctzc0J30eIzxv4zjB82F8OOLsAV4O8b4/aF3qHwKiH/h+WJNx+LTMca/shQaeecJ4QuGK1XME8Df1PGN1XH27AeAIw3dUbeFEHaM4wctxPjNGOOfjxKq4J31BP/EadnXFKx+YBm0RmcsgSrkCAN6mFo1eHN1vP4dptldgr806z8gxvhKF/7Ic8dIOmn6Cmkt3sxssVJ1PMCAsYF1mHW6FsGqIOE+Tt7M2ETtEMK+EoSrg5vhy54/ht6HT1gFrcNjPjmiiniCGixbU/tg1Sl+I/fT3KcEf74Mf8TJGPfvht/zPDKUty2B1nEj87wtVqqAQ+naXL8gUsf30+1/M0eKNmBThBBuLMPf8UaMJ2KMv41TMay4uTrwomXQunYix1mp/O6nAWOgaxUUC67cTwGPNHQH/qmS3VH/Tgve9Lwy6JrIM5ZB69EpeGxdKpFH0jW5z+6avdF2Azbm/cClwJ4m7cEZEEJ4b4xxosv9tEP4hQiXdc93QywCz8YYv977tYsx/kEI4X3Ah3C+q57SxHOWQev0Zga7ux5bKp+DDOhBaqVP1u36W3cn0gZtVFdUOrl+eJK/I4TwoQ5c3r1wbEcbuDmE8PlLQ9ja+z0xxvvIF252PMj5E8tJq6D12gD77W9XOS9H3E/BAzoZ9XgKsInBCuB54L4G7tBZaiGa1M5zJ8V3xxFovwmfK5pXK8Z4IMb4/wAvZs3ZBwfqNHfeNY3ROXjJGxaV0H3pGlyYuGp54aU5b+x+4IWG7dARmFiw6q7elRxYYV6tGOOfzcFfZPnx1dQLQqC5T69qnAd7jKczuwFVLi8woAuwzuOQahusuldc0fvmFlNyPt6kvTqD+RDCeyb0s4d5CmkuhPAzgz55JsZnOzH+Trt5g7cQcRHyAAAUpUlEQVRDlreCPwv80POvxnSz43qTKovj6Zq7WBQ8Fmv8xuvbDfPqq0XNjAdpWJdgN28NuntCP/uxYW6kgatW+6KFGP8yxvjbLXirxgdbIH+dAr7difHfxxi/GmM86zlY49DK9y2pDO6jYFx6Rv0HPLcbuLEfA3YBtzfoPW8PIeyYwJIp9zN4nNVyG4b9gYsx/k+AEMIvARdTjy7CACx04aUY41c932pSOnkrwS4roRl7mAE33k14wKL2wSrGSAihKEnvAq5oyE7ebcHPAP9jzLU9HUL4E+DnVvq6NPXD5hjjqRF+9lLA+pkMru1WM2B1ycdP/aXrAGpKXBpJs/YqBT1DTWipakywCiGwAeiZJOhU2vA7gS0NuZPdOaHg+nII4RvAT6z060cJVT0//y8ANodwxWn4h8DGMtc5nTyeX/q7pWmag2ML+U2Ig9g1CyfTtbXRXdKNehKrIDHfBvxYg7b1IzHGb04owG4Efm3A730wxvh3Y/xdlwEfzfKuwjjDCREDQAsOduDrMUaf7tOsbyTflcEnui4hpdn4Fs1d7cRgtcyP0pzxVgsxxv844RP7lS24B9jRgaPkgWNiCwzvDmHbMdh3Lt+GS7PrxzHfsYdlx8ox8nX9Hkj19CkslSlY7QU+jcFK0/cw8O2iT8wBCw0qRKMGr3eLw9W9wEXA1Q0IlhtCCFtjjBMbhxFjfAV4ZVrv6c0YjwNPphchhE3k3bubgL3A7hbs6sDGDDZ08xUUCv/0LB9gfoa8GfvtDfDGuXyM1BnglCFKFeBTgZqFl9K1tPiOvmHFaNxTgQW3cafJ+4QvAnbU/L3HdDf7/1Xk7ns7EGKMR0cIdqc5P5fPK0jN4pqTmrYj6RrqjWdTgxXkTRY96xMdSGn7o9R/iZVSD9YPIewEPkE+2D6kjy3dib8QY/ybKhU7hLAZmBslHEprlZ7UdVkbTfF+nXvTNVRL5/2mvvEB460+ALy/AcHyyGKMv1/CELIb+GcMGB+SQUitbl+LMT5V4jB1B/mYr94W0NNz8OC5GO/11KOJHd8h/FsHr2tKfgj8wDL054vGxuwBO8mTdX/vHdhxZT4WqWz+EStcEJY9/fcPQgh3lTBQbQ0hfJ78gYjt6b0sf8134J52CJ/11KMJntsMVZqGJ3E5LoNVrxj7HhyL5M2ar9b9vb8Kv1zCnXHrCLn4Q2MKQ7tCCJeGEC4J6w+b/5K8ez2uFA47cNGGEN7r6UeTOrVZAk3+EsK9vfta1vRQkbSb/OZDCLSXNSckR9MOs5V6D2bfuC2ES4/H+EaJ7rRPApuHDGGhHcLPL8b4lTVs9y3Az5PPvh8v/FQ4B/xFjPHlEX/mr4zy9QvwXuBBT0GaULBynJUm5Ui6Rh4ddNfbdI0Pl4ucn4ZhmdfSjlPnBbg5Af+0ZH/S94a9IKSWn+1rCFXvy+BXU2jucn7Oq5j+fxv4uXYInxvxR28e5YtbeYiUJnSPIk3sknlvukb2udj6GKxWORM9RQP6j0MIP16a2+wYnwCeHfZPB/aP+F53APcMM1N7B7aFED4+oYMubIa/9ajTpA4lS6AJ+WG6NvZpA29aH4NVz0W96MP3k88mW2e3hRD2lGg7fBX4brbKvtmCszHGr43440dtobtx2C9s5ROJDnvQPX4sxrc86iRVyMPpmlho0foYrHotTf2SFSf0Z2v81iPwCyULuQ904T+TLxuz1FObAVmWt1R9bzHG/7SGHz0/4sEx9DiVxRi/RL7cTVjlePvaQsXm4lLlTuqOr9K4PcuAHhxDREGesARD2UW+WPO+Gr/H12OMf1zS0DsPbCBfm+/MOn7OzwFXDfv1LTixGOPvjfg79pGvlXgp5+eifRu4N8b4vIeSJq0Vwue7DX8wSWP1Gvniyod6A5WD+QxW67UvhatdNd4X7o0xfq/WO3wI/2bYr40x/ra7vSq4j38eg5XG41AKVa8ZqoZnK95oqf2H1HeR05jB3SGEvXXeiDHG327lLUhZwY1FSB9/01AlqeFOpWte3xOAhqpVbm4swchuBT5C3s1Ty+wBfDEtZlznu/qtwPuA3enu/hz5Qy0PxhiPu5urwvu2LVZarw7wd8CjlsJgNd6EESOtEIrS+d3AB+v6vjPodGL89+4BksFKjfR98vmqeq8NgC1WQ1xDtcIJik6MRUW6l/yJtVrqQqsVwm+4B0hS4zxgqDJYTTxcrbBg8+N1DlchhF93D5CkxnicgmkVDFUGq8nYsKH3IwvAD4Bnavyu51O3gqTqnNQd4qG1eCZd0xYG3GzLYDVm584VjVY/mdL9izV+5+0Qwr92B5Ck2noxXctOFoUEQ5XBamI6nJ8CfJnDDHgktUbmQgi/mSbqlFRiXgQ1oqWphA67PxmsZnbS6vYX7g3yJtSDNd9Xfi0tZCxJqr6D6dr1RtEnvZM2WM36rnB/2kHrvLhuyOCzG0L4oHuAJFXaW+matX/QF5y1RgarEhTvZfIm1UM1DpSxAx8IIfy8e4AkVdKhdK162VBgsCpbyCjyfNphj9b4fXczuCKE8K9CCLvdEySpMo6ma9TzRYHAMVUGq7J6lryJtbZLo3TzpW82AL8UQrjLTS5JpXc8XZuetRQGq1KLxbOzP133cLX09jP4cAjh10MIO90bpJmf1J3HSiuFqqcHBQFbqwxWpbHC0jdPkje5nqjz+0+tV/PAZ0IIP+4eIUmlciJdi54sCgEGKoNV1cLVE00IV0kEbm2F8G83h3Cle4U0kxsdqShUPWEppsMV0MccrmKMhNDXEr+0puD7ga0NOLF3T8MnQwhd4H/FGA+6d0jSzEJV4bq2tlYZrOoQrmIKV9saUo4M+HQIoQN8O8b4mHuIJE3FcQa0VC0FKkPVhHKAJZi6m4APNChcLR3IAVjswiMxxu+4G0gTu7n7TRzmYajKB6o/OeiO11A1ObZYTd+TaZ/+AHBRU950GuDeAu4MIdxBvi7VX8cY33KXkKSxOYpP/8325sYSzMz15N2Cuxpcgww41YL9HfhOjPGYu4W0Pq0QvtD13N5USzOqPzvohGuomjxbrKZgC3C6f4d+Nn3o/cAlDS1NF9jYgeuA60MIJ9vw7CI8F2N8rfZ3NSHsBU7HGI94lEhap7cYMKP68hOupnButwQzdxV5t+AeS9F3Y/U6eXP2/hjj2xUOUBuA3SlAXwbs5fwYu2/HGB90k2uM+9sXPLc3zkHy7r+Ba/8ZqqbHFqsZJYZlXgYWU7jaZ4UuOAdclsHeLoT0lOUR4AXg5e1w4miMpVrsOoSwJQWmLSkw7wV2AK10cotprJnnOUnj8loKVftXOpnKYFVbnRhphdC7s+8HvkveLXiNVbrgpBA5H0a2A3dk8N4T58NWFzjUhtcW4UXyXteFpVeM8dwYAtM8+cD7uXTMtIG9bbg0wsWd/O/akL58+d/7ztvw5CZpAl4k7/57Y8gbeRms6meFea7eSOFqAbjBSg0dtgB2LeYPAdy2VOZ0UgnL65xBp5vX91yq8wWbpgXtTn5MzKUglS0LS8tPVBHyZsYx3BjaZSNpLZ5JoerwoEBlqDJYNSpcDbibOAx8J130b7FSaxaXBbDlySeQtyxtKPqmTmGGG096MlhpWjIIXlBr73Hy7r+TA24+ZbBqpm7P3UVyEvg74Cxwp1WqtzmDlSZ0XlFtPUDeUrXQE6jd/gYrrXAiXCDvFjwH3E3eLaUaWrAEkobTAe5NLwO1wUqrGTDI8F7gDPmg9s1WqZZssZK0mlPkrVSPWgqDlYa0wt3Go8vC1S4rZbCShtinomWojRVnU5fBSmvzLPk0Au/Hua4kqSleS6GqbyUKp1IwWGkEc+Sd6d3+A2wpXF1vlSSp9jfUPyRvsepjqDJYaQQrDGg+BHyTvL/9dislqVeabsGuwGp7OIWqM5bCYKXJOwN8m3xahve7DSUtZ0tGpS2mQHX/CsHZbWyw0oTcn8LV3eTr0UmSqusI+ZPgTxmcDVaanaeAEylcXWE5KsmnAiW9mkLVa0WfzMjH3p61TgYrTcVry8LVTZajcpz8VWq2J1OoOjroC7qGKoOVpu4o8DfAceB9nF/dQOU3ZwmkRuoC95GPqSp82MDxVAYrTVHBARfJF+U8iuOuqsSuQLlPNY/jqQxWKuOtzoC7maeAY+QtV1dbqdIfgLYuSs3yEnlL1YGiG2YDVfV5Uq94uGoVb8QDwNfJ50JRudm6IDXHw+ncfGCl87oqf8OsKuukjVhwMJ4mn+/qCHnr1RarVT6LlkBqgpPkrVSPrHazLIOVSnJx3k7e/1fgEeBwCldOyVC+A9BWY6neXk2h6lVLYbBShSyFqgHjrl4lXw7nfbgUTtnYFSjV18MpVJ0q+qRP/RmsVAHdwQfsKfKuwaWAtc1qGawkTcTxFKgeWylQGaoMVqpYwBpwN/QY8FYKV9daqdlaNFhJdfNCClUHB4Uq1ZvbuAHhqsBB4K/IJ6bzpmm2DFZSfU65P0zn1oMrHfCedOvNFqsGHOkt8qcHeyySTyj6FnAXsMdqGaxUj7tlL9xTdxC4H3h+0DaJ6dWxVgYrVV9n5RPu88AbKVzdZrUMVpJG8kgKVSdWusGVwUo1tMLA9hPAt9Jd113ALqtlsFJlj/NoFabiUApUT610cLsxDFZqgNbgO6inloWrm62UwUpSoSdSqDoy6AvskjVYqUEWVj7wjwB/A7wO3ImLORusJC0/Pz4APL5aoDJUGazUQN2VA9bj5OtZ3YmtVwYrSU+kUHV4pS+aA85aK4OVGh6wNm0iO326KFwdJm+92p8ClmOvDFZS0xxKgerJQV+w/ObUUCWDlSCFqhXGBDy5LFzdasEMVlJDPJpC1bGVApWtVDJYqdAqYwKOAd8kX3fwvcBlVsxgpZLtTCFssgpj8TrwIPDcoC9YPvmyoUoGK61qhdar54BXyFuv7kg3azJYqRycf3J9FoCHyFupzq100Do4XQYrjWSVge3ngO8DL5O3Xl1nxQxWcn+quOfJW6kOrPGmUzJYafiANcCB9LolBaydVswLodyfKuZwClSPr1bYaKiSwUpjs2MH2ZEjg04qjwMvkXcN3oGLe3sh1ExcAeFVyzDKfeND6XVy0BcttVA5g7oMVhqvFKra5Ks3FzgJfBf+//buaCeOKo7j+G92oAYtEdsYrEpbagvVauO9T6Ax8SG89nU03pj4KHpj0qipuoVSaKFFaCsRoQUElt3jxfw3TCvMmV3OLjM7308y8WYrMDs7+905Z89oyeKK4cEcYsIKARFVuT2woFrNU18AYYWeOfA/ZNW2aQusN9lrx2OmMQIj1LOtWVDN+XYiV6hAWKFo5uxT4U3bXmWX/F/MsCkIq37YkfS7bY2jHtB+ITLsB8IKRdaQ9IuSJRpuSvqIXfIirliBsOq5PyyoMm+Y7AgqEFYokQ1JP0paULJy+zV2CW+E4HjqsXklK6ev+nYY86hAWKGs2vOv5pVcvZpgl/BGCI6nwJaVXKVazPNgrlKBsEIpxMpc82XRtmkLrPEK7yfeCIEwnlpQHTsxvZaKqQvK8ZVAgLBCUTRTB1jr+MCas+1D285XdT8BQYyN1bSxUbW/+m8lQ3513wPT86iIKhBWKKWDfA+rS7or6YYF1liFdhFXrBBOtaJqw84dd7JONemJ6Qz7gbBC1RrsN0mzFlg3JL1OWAEcTy/ZtJi6o4wbJbeDionpIKxQCRk3Mt1Xcmf5GSX3IPxAg30Fi7BCMKNS7fng/nkbdl6YkbTne1ERVCCsUCk5Tnp7Flj1VGCdY88BxxvQqFpPBVXD92GtRlSBsELVxcqcxN1QMkRYl/S+BdYg3SaHK1bgeDramsXUrDzf80jHFFEFwgqV10wFVsaciKYOv/kzbZH1Dm+EwMAdTysWU3N5HswVKhBWQI7A8ixD0F6mYVLSdUlXyvo3s44VQjorRVvl/fUfKPl28GKekGr/l6gCYQV0EFjtr0d7Fhp9ywLruv2z0v2tQAhb5Qv1psXUXUlPfEEl/zkBIKwAb3TEsWrNZtaJ9Iltv1pcTakkSzXEPM0Iqyy9sSnpngXVM19QtcQ6VCCsgICF1cz7bvFM0i1JPyuZhzWt4s/DavAEI5Q3pP1/iv0rruhwKN/7so5SMUVUgbACesgzYbWlZPLrrIXVlKRrkoYL14yeT+tAJ9ad24yiqGjDgQ0lN16/Z2EV4jUOEFZASK38J98V225ZXE2pQMs1DEuPeTYR2F5Bzu1rFlPzkrbzhFR6uI+oAmEFFDuwtiXdtu2iRdbV03wN1KTakGfCLtCFvyS9fUo/+0DSgsXUozwx1RIrpYOwAgobWO2TtecT7yPbfrK4uirpwin82m7HuWWePQQ2o2QIvJ/Tkh5bUC1I2snzD9rjla/Ic38aoGRYQwcDaVjJxI4O5mmMS3rPImu0T79m3Tn3A88WQouj6KtW7y8CPbeQui/pqe/B6ddijrXqAMIKKKouJsFeSW3DPfy1vnPObfMMIfiJPYo+kfRxD/7XDSULeba3XAe6E8N9IKwAYisZpZi0wJoM+fOHpHqDq1XoXViNSPpS4YYDFy2kFtXByF1k2xlJuzwtIKyAwQ4r6cVbY3i8ZnF1WdKlE/74A+fctzwL6HFcTUj64gRx9VDSksVUrm/1tVIxFYnhPhBWQGVfBB2+85xNBdblDn+cc859zV5Hn+LqU3V2L82lVFDlvu0gw30AYQWEMmKBdUnJMg5nMt58Wk3nvmGXoZ+Goujz5vFXWfeVfEP2oW3/5g2pVvcfTADCCqjqi8Opo8nvscXVRUkTSt2vMJa2Dpz7nr2KUzmWR0Yma7u7n9lxvClpWYfLjuQasXs5pmIli1YBIKyArl4oXQxzjCtZH2vBObfFXsSpH8dRNKpkmYSuP2gAIKyAYI5afDTripZzvBWhkIHlPbbTIXVO0jq7DSCsgH4iojAIofWupD/ZJQBhBRBWwMnDCgBhBRBaACEFEFYAkQUQUwBhBYDQAiEFgLACCC0QUgAIK4DQAggpgLACQGiBkAIIKwDEFogoAIQVQGyBiAJAWAEguAgoAIQVAIILBBRAWAEA4UU4ASCsABBgBBOAIvkPybpnU9JeM1YAAAAASUVORK5CYII=;labelPosition=right;align=left;fontSize=32;fontColor=#000000;" vertex="1" parent="1">
                    <mxGeometry x="80" y="-760" width="80.15" height="80" as="geometry"/>
                </mxCell>
                <mxCell id="104" value="Repository (Template)" style="shape=image;verticalLabelPosition=bottom;verticalAlign=top;imageAspect=0;aspect=fixed;image=data:image/png,iVBORw0KGgoAAAANSUhEUgAAAKAAAACgCAYAAAH8yFe7AAAABGdBTUEAALGPC/xhBQAAADhlWElmTU0AKgAAAAgAAYdpAAQAAAABAAAAGgAAAAAAAqACAAQAAAABAAAAoKADAAQAAAABAAAAoAAAAACEJDuzAAAL3ElEQVR4Ae2dW+xuxxjG61DUsXvXbqVKBAmaSKoEpQ6JXQnhQoXE4ULdlAuaRoIbrAtC4twLEi7YDTcSh5Y4VNI4pGk0ISq46cVusnU7lKpDNqrK8/z393aP+a/DzJqZNbP2et7k/WbWHN/5rfdbx2/mO+OMzckDBkb8fqQ/cCDPTe7cjbF4aMHL/EZCrLjPrzS2HdJgSJn7+4gqfH+tkcjp0eB/R0a4LytkyEO+uq8xJjy4N/VkYjeSZ1k3WWQq7JwCHLLpMSed0X2OPWbhQVS4a9eADZsNM93kZovEhO5OceO9bYTsFKt4xCIKt07AHNbn0PkJA9uh5faqTxW+tK+TKcc+u6/SWNpUg3ePVe7Lm2qwr85o2vobPDQ6vp7MqSHf2VNnNGlRxzZL7HziH62jHJvnDXNqjsKUnTCPepgbTYgN1cImjJIRItAmgc4xy407ycHRK1Hy2SGlpw6uIW18IaSQV+ZX2Havgr3sU5s5DLziVHP5Y6kGvhcmFT1Cphr4ERg4dMrMgjPVwHe1TvDjrRPkbryGH6UkdRfTrnfOMO5FqPPYkHpjd/Fj9buxzIC8H6PMWQHlgp7iTbUzdJgZSp9q7//yYw4RD0NNnqIo7Nx8j/G+diz9Klbw5HpsH/XSim3SEPohQ6rdEDIuEQEREAEREIHKBPrOoUMmdUMZM9J5Hrf3HTOq76/SOUlu3EmOiga3keOCNcqy2MKpBt4W22Fs+VQDnxrbYWz5VANjvmSxtu2VTzVwVqcxlVIN5FVzUYpz7+oMQlHj2EkqQTO0WJhq4IOKWbZrONXAe1s3UD6YuouL35ynGviz1n0w6FVCyiBSCab0HVQ39FvYBbUWVyhrm1kbwziC20s9F499i0P3DuwdllQD2XKfIWOGD1vTkxNj4EtR/xe7NmLuyA56/R7wtkc3+0Y/VOHNyDhnl/lZhPdAh64HLf25KHPJro4FJxD5vG2UDod25VB6tD0xu3iscdegXG2O9RecR8Oo5zk1LM1JUlQEREAEREAEREAEREAEREAEPAIxN5xe1d7N0OmSvZUXSuxy9pP73tCe4/lG2raFOccQ2hZnWhyGcgbf90MrTZWzAU+VU/4AgZoAPwmb7OHDQwbsaz65JsCrQYfHYCof4K1SagJcJTDf6NoA3waDLvKNWtN27rNwzNhfgsJ8/k7JfTl1stUFPmsC/OGawdm+qf0VNjtWG9YE+HJQs8sYAZxB4AbU4fvIp82o20yVmsdAQvhyMyRmGlLzKzzT5Laq1QTIKZZ2DDyzLSzh1tQEyEm0div373CT2ypZE+DSJOwXFI/L2XHuO4BuZxwfDrT6hOUm2JbteWCps/B1MJJrJrQk9kA1q02lvsKtwcsKzW2slAe6fYzFeRaeI7kPPXNs2KtTG6AZHgpkLnD2Y8fkrGf8UMNtoFPhM1HgtSOFfoK87zj5BiTUDr9857QVEv0DCn0mpOBayhCIQQmxObZ8SJtJZUqdRFKMuhWVDRTPnJIRAgbKDQmQQnhu+hFnm/kSEPgtlJC4WMmYcH7ecSgv0F8zVlB5IiACIiACIiACIiACIiACIiACIiACIiACIiACIiACIiACItBDIPR9bE/V3qQXIJW/fW5RirwTzrmYIv8V4Q0tktvZ9AiE50Kz/m4n50873rQz9GsIbaUtJnX8gHR7n3U++P6bc5kvzN19zhfrB3bGufBy2zu3vah/oo3pJCfAmH5Pm7ICmLgrawJ8HWznX6bYfxgmDqVO9ZwnkdgRfGVX4U8Ic14NxNqRVL6mBx7dWW7/PpQ0kFqVa3rgk2sNOme/NT0w5ziqtSWAiegFcMUA+Yd970u0v3r1micRLtpM4a9TD+3FVvhR8yvMn/ZSbj4ZrPOzpgdy5/F5pIFcJcGaHkhgq4bHAdQGSBtWLQKYuPtqA+Rj9lVLTYA8/v0d+r01E6wJ0LhxhudqpSZAzt+9Gnr+aunB8JoAOfH5U2uGR9trAlw7uz37BTBxNwrgigHeAdt5KTM1VzhxiGWr1/RAO/t+ouwQy7ZeE+ArMbTfQB9TdohlW6/5OIvLnzyh7PDKt17TA8uPboEeBDAR8lYA8gVWESlxDOTST30PCLoiI6jcaAkP7INXeZjlui/hgXxI8KFyJs9uuZtdc6RiCQ/kH61sRkoAtBfmm4BYAmAouGMoyHvhWA1tf5FyNQFesMgIC3dS4iQSa3LobCl6anOS0wPv3Y3uoc2NsqBBOT3wFtjJuXLvhn4O6i/2yl/k557w8ki0aYvLIjool+9ysntx6Ndn0DIvo/O2/U033wYTaoNf/klo/C3QGPkwCv8rpsJU2ZweyL466CXQi6F+27cjLafcjsZ+Dw3xwKModz30tBJ6lHlVyMBiy4e0mVwm50kk2Zg1NtAaQHflXlvNd41cF7HZ/UpyqhfP0pbmhvbWztIWMW4NnRiQIx44eiGFHmhl3HAvUx/74RCkL/wXGhce45IdAV7cEghfsE/N1uTXmGWPQyUiIAIiIAIiIAIiIAIiIAIiIAIiIAIiIAIiIAIiIAIiIAIiIAIiIAIiIAIiIAIiIAIiIAIiIAIiIAIiIAIiIAIiIAI5CYTO7svZZ2xb56DC86BPgXJxLX/iHZIkIPAP6O+gv4T+HPofaPPSsgO+EPQua55guwb+DaZxrjbDZqVVB3wViD3HofZPxLlC3q+h/uR3Fuv44UjnxLcQ5X48G8ovrP+XoZ9G2p+hTUprE1wN0rMssgs/hpDTDfuczyu6yU1OfKOT8e8NfwB15SJ3o7V4qw7ozza0NVRa49eiPT6rpq+ZW3XAFnesbCpAQA5YAKqaDCewRQfkOkp8RMHrJlNeO0kqENiiA74MnP1xH0Zaq08EKrjFcl36O2K5nuv19EF0zQfaXNPwo1Au6nMQyqOhZGECTd8hFWTxV7RN55NUJrDFI2Bl5OreJSAHdGkovjgBOeDiyNWhS2CLDvgoAOA7ZXsEwzcHb3ShKL4cgS06IO+Cn+Eg5mu/L0FD1j13qimag8AWHfAqgLsCysX2efT7KvRc6D1QycIEtvoY5ovgTJVUJrDFI2Bl5OreJSAHdGkovjgBOeDiyNWhS2CrDvgOQODrOD6KuQF6PlRSgcAWb0KuAWc6oAnnUdwB5T9W6k7YqCwUbvEI+B6w/anDl053OVTO50BZKrrFIyDnz7oz7pZirX56CGzxCNiDQUm1CMgBa5FXv3sE5IByhKoEtngNSOCHoPwnU4bfgH4XKqlAYIsO+AFw7hzWVyLOZ4IHoPc56YouQGCLp+Bvgau/esB1SJPzLeBwfhdbPALyGeCZPght1yGwxSNgHdLqtZeAHLAXy6oT/Qn2/nZTg5MDNrU7shjDlWRdeby70Vp8TdeAtJUrGjwcOvWtfmJroBewh3fxL4ZySWNXuGxvs7IWB+wiCb41svzpXNy/429qrGtxQIPG9Y7/AvXXcbGjI8sxv2noNLKAnECbnGjFO3yuALYKWYsDfhs0b1kF0fpGXlrfhHAL1nITIucL36erKrkWB8wN9RVo8BjUVkcoFbIP9iUZILCWU/CA+bOTeUpfQi5AJ+xr6q59CVua7GOrDujvjNwO4t8k+f1pe0dgq6dgOUAjBFp1wD96fJ7vbWuznwAXWLrYy7rT225qM/epJ9fgHo2GOHVy7q9W7kbda6F3QfvEP0Xm5jDVPr/4r4c+vc+4jGn85c83M7aXvanc4HMbeCEafDX0rBkN34g6PxqoN+UgA9WCk6faPw8tvT24tfiCt6HK16En4qsuW6N1ByxFY8pBUvst3X6qfc3Ub/UasBlAMqQsATngNF+uoMoJTMd3yjjTJCIwmwBPka76DfEa7YhXxi1vcZZhWV8s30I/X9sbJ2COYSFx8CX+rVBL88NrkUf1022bde2HAJZmIbIkInCKgDnGWMhHOUOnW75BYh7LjLVheSgmEYFTBHg9Z87B6ZgWd49ip0pPx/yjp/tvnFz6TSICIiACIiACIiACIiACIiACIiACIiACIiACIiACIiACIiACIiACIiACIiACIiACIiACIiACIiACJQn8D8TbvmgIoux5AAAAAElFTkSuQmCC;fontSize=18;fontColor=#000000;" vertex="1" parent="1">
                    <mxGeometry x="230.15" y="-645" width="80" height="80" as="geometry"/>
                </mxCell>
                <mxCell id="105" value="Issue_template.md" style="shape=image;verticalLabelPosition=middle;verticalAlign=middle;imageAspect=0;aspect=fixed;image=data:image/png,iVBORw0KGgoAAAANSUhEUgAAAKAAAACgCAYAAAH8yFe7AAAABGdBTUEAALGPC/xhBQAAADhlWElmTU0AKgAAAAgAAYdpAAQAAAABAAAAGgAAAAAAAqACAAQAAAABAAAAoKADAAQAAAABAAAAoAAAAACEJDuzAAALh0lEQVR4Ae2dP8w+RRHHXwVMjCYQosQCOkNhgj/pLO0MCWphQSG1CYkUVnb6dJY0FGiEzsTQGQtLQkVhgf9iIx2GwmDQaExUUGf0mZd993b3Zmb/3N7dd5P73d3uzOzMZ+f29u55n99zc4NCBP6j2D7dmtQ/cgbvzzVcvZTmj8jBdf+v6Pz2tGQwNnKrRAdZgx8NpaLjFEsRCQ1epJL3Qz0MO46PQw/vtJVCviMYnezYYGpQfkXhPUDbxwr7+yIEt6cpg/duWx0H3kHJdpXyMBS+hCc4BoE0gd9TdWoejOvS2olaVlwrfElmS+lKEa9iZb7OuVz+92/0T+lKyd1TxGBk6v+nJYOp8LkTt0GXhyWGyZDWPDyhwXiUP0GMfkNb6X7Co5wbsMXK4e8k/ARt85Ss61cXLwpXNTIKMxABgb0SSN0DPLHw6vR9j6Jntvb0w9Nd9qmhZHArBy8lp8K2rRwMfSg6O4ODobOL4/j2uRBIVGgvnPA+5c5Bj4Nhxwn/k1VDHQTBcAw0Q/x5Uvg3bR9ct/A4VxfL8JLQNQ+uOejJN/JlUd6kmicXtYqKNQdjE5e44gznpwz6DAOLGEEABEBgDgJriwHt2k8TzVpfGhsLmVYOuu2MemhaRK6tOJyDPFTx9raWxlWOc/G7Wh3rgrVForMNdU5uMcTcJz+zqMoWDoYE+fh7JU+tDnK+xTmYOn+q0GnsYJGmNQcfK3SsbYodLOajlaDWiZJcmIPhcVLH6mBqOFN1panHRNA6xGy8tpgctBKsdY71p3cwzLvwOBm8lWCPaaZ4FVtz8BTTzLFyUDPE/BEyv6iMX0pazsMLwERwzcHXyfKPabuPNr6geC+b5fwV0pPS1MEvidWGe5OD1mmmhZ/cp6xgwuOk7bUhDpUu4Unl8RtX/ZBmpck+6o+Q2edKprcY4tCfVYKWIQ4NX8KTymMZ7kozUAcBEAABEAABEAABEAABENgVAX5c8ZbiCzOv0QZ675KN5l/LbODXwoS8NV80bFTBfz3JPv1zZP9bP7C3jFVikfc9LW1nbUmnWYEdNfDrSi78jjVVLlT57VRDTV1vgG+Tc3Kpl/alz0S18UksqQyUtk9qjWnlvK+0tPZbfJii7auUgXKz5EFsWmRkmhrdyJjEksrAEsAL+eu+tKXTXjGXLltPG08JuVLKQIkzhiv17ku79yUsI58LumW9wIghcR/iR3wJ5+rVfkmnaoWJBUsZmAOVq1eHeSSAEsuhMpDnLM9cl9MpLXdKGZiDm6tXZ2DvOXDkMqYEI3ep5urVAKVTtcLEgqUMzIHK1avD7A0wdyl663lKyBWJZegc2PsSlhHOBd2yvpSBObi5erVfYkCtMLGgxDI0A6XTibmoXStloFwJPHWEJVcfyhSPjwRQYhmagS3mwHhUiyM2oPGniT5ycHP1CRPpqhqAkv5py3PViq/xYOfq1d7LCKgVdiqYA5WrV4dZk4GlTvj1EG+y3mPZtWPJjjW5nK2Sfg5Urp77UJVeAJ+m3h+kjR0UJ9eOtXIcWMpWSZ/bfkfbq6wcFLkCUzeeQCx/2AvgT/JdTtUi0CV7zc71AphzZC+Xds7/Rf1ogHu5tBegUAECIAACIAACIAACIAACIAACIAACIAACIAACIAACIAACIHBKAg9R1PL57Ux7/kG0XZTXycuZwIW+7ALgr68AZ/oNLoE4FKB8Mm/tVPTcn+hbO5xVXkBY/av+RN/a4azyAFg5MgC4EUABv5c5kL/OeqlklVQXEMnGQqVmDuTvdMidcW1f6KpJE/+pXZfSE+A3lR7/QSk3pZj3r7M0Gfhziljkpgy+hVPeDBS9vcyBLVglbQiIZGOhUjKL57ZTl7MDrL47nx1g9d3ZC1D0SnOgZRmztsyR9ummCwFhdUwzB2qXMdq+p1zuYBmjHb6MXM8MzHR5rGovQNErzYHHIpWJRkBkmrPVmjkwq3ykBgCsHM2eALGMKQyOgC/NgVjGFABq5kC8jakEWFA/TpNcitaINBlotblLeS9A0SvNgbsEYnVaQFj1kIFXYj0BYhlTSEtNBmIZUwAomVuaA7GMKQDUZGBB/ThNkknWiADwSgwArakTyXsBil5pDoy6OuapgLBGh0v4SgwArakTydd+qHSP7PFlzJt89Bgec12pXWRlL/KxLU07dTW+eAG+SK5+i7Y3x7s8V49egM9TGO/Q9gxtPB/yVMD73PGI9j9R/5+jbWjxAmQnv3/dhjo8W2fem8hscWzmDwBWogfASoA1c2Cp689QIy9FuMiSRHPs0Qnt5vRZpkvpAfA75OnHu3g7odEeAF+mOL9OmzzuyfKGw1879uiEdmN9Oeff23yJBVuXHgDfJSd/0NrRWe3hJlI5MgBYCbDHJVxy6XB355EAD3l3lrtUKWtatX2KDM16d36vVZCwAwIgAAIgAAIgAAIgAAIgAAIgAAIgAAIgAAIgAAIgAAIgAAIgAAIgAAIgAAIgAAIgAAIgAAIgAAIgAAIgAAIgAAK7IzDyL8sFziN0wN/Q/hptD9Mm30CMvx0Yn5PorazmOKXPevyfLnCRfnPHKf01ndBWjf7fyNBrtL1A25/ZKEobAhcyI4OIvY7Fj9qgn9PK6BmQf4Yz/AnOe3T+W9rYD/FFjuNzEknK5eq31g/9svjCXxj7BStfywe0H/klMul3yH50YDIQEhzfDuWWKHVn38djIrfyQ3IZ/QXhOAEPDdeZMadihAR0ZklHNSRgR7hxwuP2u4R9KkbxemOJo23Nqa5uJ7oaRp+lPr9y7fdntH/L6cMwtfhq691xDdzQt6fopOUvG7AttjlD8TJivWdpe/C6fWOGYNZ82GsC/pACe3QtOEM722KbMxRvAsa+7+IBb/QtOE547xrwsZj2gc69jFol7lCUcbC9O98lpN5QIvteRl69qPuxp0jAsbw1ve0ykTSBpWRG34JPBTcFXFHnZeTR2/ypefQMGPfnXQMqxnG3Il5G1gRk+c2fmuNge4+aFVLOn9avYVr/ZU7Na51WjHLscvWbPDXvNQFbv4bJDYq3vua1jjcBrXpWeS+Lot5e14BHfg0zRWIUs6Zh4+gZMO4Pa8DlYHoZWRPXKr/0tEFNHGwDk0UTUwRd9HD7Ri8jq55VvgsZJGAXrFVGp0iMqggMykhAA6xBot4EtOpZ5buEPzoB4/68a8Ajv4bxMrImlFX+EAnYKmi8humSDuON4jXMeOZrPXovUqueVX7Nb1d7PN27jBiUpgja4O8WoqdiNDoB4/68a8AtEmNUn15G1sS1yneJPw62SyeB0SmCDvyZ8dDLyKpnle/CCgnYBWuV0SkSoyoCg/JeE/DIr2G8CWjVs8ob0kovOjoB4/68a8Ajv4bxMrImlFVen1UGSbyGMcAaJDpFYgyK9Sa+2nr3eyq4TpheRlY9q7wznLIaErDMZ4vWKRJjVOCjEzDuz7sGHMVni368jKyJa5XvwiIOtksngdEpgg78mfHQy8iqZ5XvwgoJ2AVrldEpEqMqAoMyEtAAa5CoNwGtelb5LuGPTsC4P6wBl8PqZWRNKKv80tMGNaPfA/6RfOafaZCyyXdRpfOd7P+6Ez9dbsZXm8uIQelxkv2lQf7som8RgK8qIVhnNKu80g2b2OgZ8C/k3pM2FyF9ZAKjZ8Ajs9w6NuuMZpXvEh8SsAvWTYxaE8oq3yUoJGAXrDCqJYAE1JKaX846o1nluxAY/RDiDeKLpPhl2mJoXntn0Ht/JciY5SavxPYyA34BybeSTneb+edeX71bNefZXmbAl+bEt2uvMAPuevjgfBMCe7kFNwkWRu4QwAx4BwdORhOYIgH3sga0Dg6emq3Ebm7WnprtFhUaR70F46lZMfiByG6emgOfcQgCIAACIAACIAACIAACIAACIAACIAACIAACIAACIAACIAACIAACIAACIAACIAACIAACIAACIPAhgf8CpKQ0Yk3EtuAAAAAASUVORK5CYII=;labelPosition=right;align=left;labelBackgroundColor=none;fontColor=#999999;" vertex="1" parent="1">
                    <mxGeometry x="210.15" y="-385" width="40" height="40" as="geometry"/>
                </mxCell>
                <mxCell id="106" value="project_1.yml" style="shape=image;verticalLabelPosition=middle;verticalAlign=middle;imageAspect=0;aspect=fixed;image=data:image/png,iVBORw0KGgoAAAANSUhEUgAAAKAAAACgCAYAAAH8yFe7AAAABGdBTUEAALGPC/xhBQAAADhlWElmTU0AKgAAAAgAAYdpAAQAAAABAAAAGgAAAAAAAqACAAQAAAABAAAAoKADAAQAAAABAAAAoAAAAACEJDuzAAALh0lEQVR4Ae2dP8w+RRHHXwVMjCYQosQCOkNhgj/pLO0MCWphQSG1CYkUVnb6dJY0FGiEzsTQGQtLQkVhgf9iIx2GwmDQaExUUGf0mZd993b3Zmb/3N7dd5P73d3uzOzMZ+f29u55n99zc4NCBP6j2D7dmtQ/cgbvzzVcvZTmj8jBdf+v6Pz2tGQwNnKrRAdZgx8NpaLjFEsRCQ1epJL3Qz0MO46PQw/vtJVCviMYnezYYGpQfkXhPUDbxwr7+yIEt6cpg/duWx0H3kHJdpXyMBS+hCc4BoE0gd9TdWoejOvS2olaVlwrfElmS+lKEa9iZb7OuVz+92/0T+lKyd1TxGBk6v+nJYOp8LkTt0GXhyWGyZDWPDyhwXiUP0GMfkNb6X7Co5wbsMXK4e8k/ARt85Ss61cXLwpXNTIKMxABgb0SSN0DPLHw6vR9j6Jntvb0w9Nd9qmhZHArBy8lp8K2rRwMfSg6O4ODobOL4/j2uRBIVGgvnPA+5c5Bj4Nhxwn/k1VDHQTBcAw0Q/x5Uvg3bR9ct/A4VxfL8JLQNQ+uOejJN/JlUd6kmicXtYqKNQdjE5e44gznpwz6DAOLGEEABEBgDgJriwHt2k8TzVpfGhsLmVYOuu2MemhaRK6tOJyDPFTx9raWxlWOc/G7Wh3rgrVForMNdU5uMcTcJz+zqMoWDoYE+fh7JU+tDnK+xTmYOn+q0GnsYJGmNQcfK3SsbYodLOajlaDWiZJcmIPhcVLH6mBqOFN1panHRNA6xGy8tpgctBKsdY71p3cwzLvwOBm8lWCPaaZ4FVtz8BTTzLFyUDPE/BEyv6iMX0pazsMLwERwzcHXyfKPabuPNr6geC+b5fwV0pPS1MEvidWGe5OD1mmmhZ/cp6xgwuOk7bUhDpUu4Unl8RtX/ZBmpck+6o+Q2edKprcY4tCfVYKWIQ4NX8KTymMZ7kozUAcBEAABEAABEAABEAABENgVAX5c8ZbiCzOv0QZ675KN5l/LbODXwoS8NV80bFTBfz3JPv1zZP9bP7C3jFVikfc9LW1nbUmnWYEdNfDrSi78jjVVLlT57VRDTV1vgG+Tc3Kpl/alz0S18UksqQyUtk9qjWnlvK+0tPZbfJii7auUgXKz5EFsWmRkmhrdyJjEksrAEsAL+eu+tKXTXjGXLltPG08JuVLKQIkzhiv17ku79yUsI58LumW9wIghcR/iR3wJ5+rVfkmnaoWJBUsZmAOVq1eHeSSAEsuhMpDnLM9cl9MpLXdKGZiDm6tXZ2DvOXDkMqYEI3ep5urVAKVTtcLEgqUMzIHK1avD7A0wdyl663lKyBWJZegc2PsSlhHOBd2yvpSBObi5erVfYkCtMLGgxDI0A6XTibmoXStloFwJPHWEJVcfyhSPjwRQYhmagS3mwHhUiyM2oPGniT5ycHP1CRPpqhqAkv5py3PViq/xYOfq1d7LCKgVdiqYA5WrV4dZk4GlTvj1EG+y3mPZtWPJjjW5nK2Sfg5Urp77UJVeAJ+m3h+kjR0UJ9eOtXIcWMpWSZ/bfkfbq6wcFLkCUzeeQCx/2AvgT/JdTtUi0CV7zc71AphzZC+Xds7/Rf1ogHu5tBegUAECIAACIAACIAACIAACIAACIAACIAACIAACIAACIAACIHBKAg9R1PL57Ux7/kG0XZTXycuZwIW+7ALgr68AZ/oNLoE4FKB8Mm/tVPTcn+hbO5xVXkBY/av+RN/a4azyAFg5MgC4EUABv5c5kL/OeqlklVQXEMnGQqVmDuTvdMidcW1f6KpJE/+pXZfSE+A3lR7/QSk3pZj3r7M0Gfhziljkpgy+hVPeDBS9vcyBLVglbQiIZGOhUjKL57ZTl7MDrL47nx1g9d3ZC1D0SnOgZRmztsyR9ummCwFhdUwzB2qXMdq+p1zuYBmjHb6MXM8MzHR5rGovQNErzYHHIpWJRkBkmrPVmjkwq3ykBgCsHM2eALGMKQyOgC/NgVjGFABq5kC8jakEWFA/TpNcitaINBlotblLeS9A0SvNgbsEYnVaQFj1kIFXYj0BYhlTSEtNBmIZUwAomVuaA7GMKQDUZGBB/ThNkknWiADwSgwArakTyXsBil5pDoy6OuapgLBGh0v4SgwArakTydd+qHSP7PFlzJt89Bgec12pXWRlL/KxLU07dTW+eAG+SK5+i7Y3x7s8V49egM9TGO/Q9gxtPB/yVMD73PGI9j9R/5+jbWjxAmQnv3/dhjo8W2fem8hscWzmDwBWogfASoA1c2Cp689QIy9FuMiSRHPs0Qnt5vRZpkvpAfA75OnHu3g7odEeAF+mOL9OmzzuyfKGw1879uiEdmN9Oeff23yJBVuXHgDfJSd/0NrRWe3hJlI5MgBYCbDHJVxy6XB355EAD3l3lrtUKWtatX2KDM16d36vVZCwAwIgAAIgAAIgAAIgAAIgAAIgAAIgAAIgAAIgAAIgAAIgAAIgAAIgAAIgAAIgAAIgAAIgAAIgAAIgAAIgAAIgAAK7IzDyL8sFziN0wN/Q/hptD9Mm30CMvx0Yn5PorazmOKXPevyfLnCRfnPHKf01ndBWjf7fyNBrtL1A25/ZKEobAhcyI4OIvY7Fj9qgn9PK6BmQf4Yz/AnOe3T+W9rYD/FFjuNzEknK5eq31g/9svjCXxj7BStfywe0H/klMul3yH50YDIQEhzfDuWWKHVn38djIrfyQ3IZ/QXhOAEPDdeZMadihAR0ZklHNSRgR7hxwuP2u4R9KkbxemOJo23Nqa5uJ7oaRp+lPr9y7fdntH/L6cMwtfhq691xDdzQt6fopOUvG7AttjlD8TJivWdpe/C6fWOGYNZ82GsC/pACe3QtOEM722KbMxRvAsa+7+IBb/QtOE547xrwsZj2gc69jFol7lCUcbC9O98lpN5QIvteRl69qPuxp0jAsbw1ve0ykTSBpWRG34JPBTcFXFHnZeTR2/ypefQMGPfnXQMqxnG3Il5G1gRk+c2fmuNge4+aFVLOn9avYVr/ZU7Na51WjHLscvWbPDXvNQFbv4bJDYq3vua1jjcBrXpWeS+Lot5e14BHfg0zRWIUs6Zh4+gZMO4Pa8DlYHoZWRPXKr/0tEFNHGwDk0UTUwRd9HD7Ri8jq55VvgsZJGAXrFVGp0iMqggMykhAA6xBot4EtOpZ5buEPzoB4/68a8Ajv4bxMrImlFX+EAnYKmi8humSDuON4jXMeOZrPXovUqueVX7Nb1d7PN27jBiUpgja4O8WoqdiNDoB4/68a8AtEmNUn15G1sS1yneJPw62SyeB0SmCDvyZ8dDLyKpnle/CCgnYBWuV0SkSoyoCg/JeE/DIr2G8CWjVs8ob0kovOjoB4/68a8Ajv4bxMrImlFVen1UGSbyGMcAaJDpFYgyK9Sa+2nr3eyq4TpheRlY9q7wznLIaErDMZ4vWKRJjVOCjEzDuz7sGHMVni368jKyJa5XvwiIOtksngdEpgg78mfHQy8iqZ5XvwgoJ2AVrldEpEqMqAoMyEtAAa5CoNwGtelb5LuGPTsC4P6wBl8PqZWRNKKv80tMGNaPfA/6RfOafaZCyyXdRpfOd7P+6Ez9dbsZXm8uIQelxkv2lQf7som8RgK8qIVhnNKu80g2b2OgZ8C/k3pM2FyF9ZAKjZ8Ajs9w6NuuMZpXvEh8SsAvWTYxaE8oq3yUoJGAXrDCqJYAE1JKaX846o1nluxAY/RDiDeKLpPhl2mJoXntn0Ht/JciY5SavxPYyA34BybeSTneb+edeX71bNefZXmbAl+bEt2uvMAPuevjgfBMCe7kFNwkWRu4QwAx4BwdORhOYIgH3sga0Dg6emq3Ebm7WnprtFhUaR70F46lZMfiByG6emgOfcQgCIAACIAACIAACIAACIAACIAACIAACIAACIAACIAACIAACIAACIAACIAACIAACIAACIAACIPAhgf8CpKQ0Yk3EtuAAAAAASUVORK5CYII=;labelPosition=right;align=left;labelBackgroundColor=none;fontColor=#999999;" vertex="1" parent="1">
                    <mxGeometry x="210.15" y="-305" width="40" height="40" as="geometry"/>
                </mxCell>
                <mxCell id="112" value="" style="endArrow=none;html=1;edgeStyle=orthogonalEdgeStyle;rounded=1;labelBackgroundColor=none;fontColor=#999999;strokeColor=#666666;" edge="1" parent="1">
                    <mxGeometry width="50" height="50" relative="1" as="geometry">
                        <mxPoint x="180.15" y="-325" as="sourcePoint"/>
                        <mxPoint x="180.15" y="-485" as="targetPoint"/>
                    </mxGeometry>
                </mxCell>
                <mxCell id="113" value="ISSUE_TEMPLATE" style="text;html=1;strokeColor=none;fillColor=none;align=left;verticalAlign=middle;whiteSpace=wrap;rounded=0;labelBackgroundColor=none;fontColor=#999999;" vertex="1" parent="1">
                    <mxGeometry x="200.15" y="-405" width="160" height="20" as="geometry"/>
                </mxCell>
                <mxCell id="114" value="PROJECT_TEMPLATE" style="text;html=1;strokeColor=none;fillColor=none;align=left;verticalAlign=middle;whiteSpace=wrap;rounded=0;labelBackgroundColor=none;fontColor=#999999;" vertex="1" parent="1">
                    <mxGeometry x="200.15" y="-335" width="190" height="20" as="geometry"/>
                </mxCell>
                <mxCell id="115" value="&lt;meta charset=&quot;utf-8&quot; style=&quot;&quot;&gt;&lt;span style=&quot;font-family: Helvetica; font-size: 12px; font-style: normal; font-variant-ligatures: normal; font-variant-caps: normal; font-weight: 400; letter-spacing: normal; orphans: 2; text-align: left; text-indent: 0px; text-transform: none; widows: 2; word-spacing: 0px; -webkit-text-stroke-width: 0px; text-decoration-style: initial; text-decoration-color: initial; float: none; display: inline !important;&quot;&gt;.github/&lt;/span&gt;" style="text;whiteSpace=wrap;html=1;labelBackgroundColor=none;fontColor=#999999;" vertex="1" parent="1">
                    <mxGeometry x="160.15" y="-515" width="60" height="30" as="geometry"/>
                </mxCell>
                <mxCell id="116" value="" style="endArrow=none;html=1;exitX=0;exitY=0.5;exitDx=0;exitDy=0;edgeStyle=orthogonalEdgeStyle;rounded=1;labelBackgroundColor=none;fontColor=#999999;strokeColor=#666666;" edge="1" parent="1" source="113">
                    <mxGeometry width="50" height="50" relative="1" as="geometry">
                        <mxPoint x="190.15" y="-275" as="sourcePoint"/>
                        <mxPoint x="180.15" y="-395" as="targetPoint"/>
                    </mxGeometry>
                </mxCell>
                <mxCell id="117" value="" style="endArrow=none;html=1;entryX=0;entryY=0.5;entryDx=0;entryDy=0;edgeStyle=orthogonalEdgeStyle;rounded=1;labelBackgroundColor=none;fontColor=#999999;strokeColor=#666666;" edge="1" parent="1" target="114">
                    <mxGeometry width="50" height="50" relative="1" as="geometry">
                        <mxPoint x="180.15" y="-325" as="sourcePoint"/>
                        <mxPoint x="200.15" y="-425" as="targetPoint"/>
                    </mxGeometry>
                </mxCell>
                <mxCell id="120" value="workflow" style="text;html=1;strokeColor=none;fillColor=none;align=left;verticalAlign=middle;whiteSpace=wrap;rounded=0;labelBackgroundColor=none;fontColor=#999999;" vertex="1" parent="1">
                    <mxGeometry x="200.15" y="-475" width="160" height="20" as="geometry"/>
                </mxCell>
                <mxCell id="121" value="" style="endArrow=none;html=1;exitX=0;exitY=0.5;exitDx=0;exitDy=0;edgeStyle=orthogonalEdgeStyle;rounded=1;labelBackgroundColor=none;fontColor=#999999;strokeColor=#666666;" edge="1" parent="1" source="120">
                    <mxGeometry width="50" height="50" relative="1" as="geometry">
                        <mxPoint x="190.15" y="-345" as="sourcePoint"/>
                        <mxPoint x="180.15" y="-465" as="targetPoint"/>
                    </mxGeometry>
                </mxCell>
                <mxCell id="123" value="Repository" style="shape=image;verticalLabelPosition=bottom;verticalAlign=top;imageAspect=0;aspect=fixed;image=data:image/png,iVBORw0KGgoAAAANSUhEUgAAAKAAAACgCAYAAAH8yFe7AAAABGdBTUEAALGPC/xhBQAAADhlWElmTU0AKgAAAAgAAYdpAAQAAAABAAAAGgAAAAAAAqACAAQAAAABAAAAoKADAAQAAAABAAAAoAAAAACEJDuzAAAL3ElEQVR4Ae2dW+xuxxjG61DUsXvXbqVKBAmaSKoEpQ6JXQnhQoXE4ULdlAuaRoIbrAtC4twLEi7YDTcSh5Y4VNI4pGk0ISq46cVusnU7lKpDNqrK8/z393aP+a/DzJqZNbP2et7k/WbWHN/5rfdbx2/mO+OMzckDBkb8fqQ/cCDPTe7cjbF4aMHL/EZCrLjPrzS2HdJgSJn7+4gqfH+tkcjp0eB/R0a4LytkyEO+uq8xJjy4N/VkYjeSZ1k3WWQq7JwCHLLpMSed0X2OPWbhQVS4a9eADZsNM93kZovEhO5OceO9bYTsFKt4xCIKt07AHNbn0PkJA9uh5faqTxW+tK+TKcc+u6/SWNpUg3ePVe7Lm2qwr85o2vobPDQ6vp7MqSHf2VNnNGlRxzZL7HziH62jHJvnDXNqjsKUnTCPepgbTYgN1cImjJIRItAmgc4xy407ycHRK1Hy2SGlpw6uIW18IaSQV+ZX2Havgr3sU5s5DLziVHP5Y6kGvhcmFT1Cphr4ERg4dMrMgjPVwHe1TvDjrRPkbryGH6UkdRfTrnfOMO5FqPPYkHpjd/Fj9buxzIC8H6PMWQHlgp7iTbUzdJgZSp9q7//yYw4RD0NNnqIo7Nx8j/G+diz9Klbw5HpsH/XSim3SEPohQ6rdEDIuEQEREAEREIHKBPrOoUMmdUMZM9J5Hrf3HTOq76/SOUlu3EmOiga3keOCNcqy2MKpBt4W22Fs+VQDnxrbYWz5VANjvmSxtu2VTzVwVqcxlVIN5FVzUYpz7+oMQlHj2EkqQTO0WJhq4IOKWbZrONXAe1s3UD6YuouL35ynGviz1n0w6FVCyiBSCab0HVQ39FvYBbUWVyhrm1kbwziC20s9F499i0P3DuwdllQD2XKfIWOGD1vTkxNj4EtR/xe7NmLuyA56/R7wtkc3+0Y/VOHNyDhnl/lZhPdAh64HLf25KHPJro4FJxD5vG2UDod25VB6tD0xu3iscdegXG2O9RecR8Oo5zk1LM1JUlQEREAEREAEREAEREAEREAEPAIxN5xe1d7N0OmSvZUXSuxy9pP73tCe4/lG2raFOccQ2hZnWhyGcgbf90MrTZWzAU+VU/4AgZoAPwmb7OHDQwbsaz65JsCrQYfHYCof4K1SagJcJTDf6NoA3waDLvKNWtN27rNwzNhfgsJ8/k7JfTl1stUFPmsC/OGawdm+qf0VNjtWG9YE+HJQs8sYAZxB4AbU4fvIp82o20yVmsdAQvhyMyRmGlLzKzzT5Laq1QTIKZZ2DDyzLSzh1tQEyEm0div373CT2ypZE+DSJOwXFI/L2XHuO4BuZxwfDrT6hOUm2JbteWCps/B1MJJrJrQk9kA1q02lvsKtwcsKzW2slAe6fYzFeRaeI7kPPXNs2KtTG6AZHgpkLnD2Y8fkrGf8UMNtoFPhM1HgtSOFfoK87zj5BiTUDr9857QVEv0DCn0mpOBayhCIQQmxObZ8SJtJZUqdRFKMuhWVDRTPnJIRAgbKDQmQQnhu+hFnm/kSEPgtlJC4WMmYcH7ecSgv0F8zVlB5IiACIiACIiACIiACIiACIiACIiACIiACIiACIiACIiACItBDIPR9bE/V3qQXIJW/fW5RirwTzrmYIv8V4Q0tktvZ9AiE50Kz/m4n50873rQz9GsIbaUtJnX8gHR7n3U++P6bc5kvzN19zhfrB3bGufBy2zu3vah/oo3pJCfAmH5Pm7ICmLgrawJ8HWznX6bYfxgmDqVO9ZwnkdgRfGVX4U8Ic14NxNqRVL6mBx7dWW7/PpQ0kFqVa3rgk2sNOme/NT0w5ziqtSWAiegFcMUA+Yd970u0v3r1micRLtpM4a9TD+3FVvhR8yvMn/ZSbj4ZrPOzpgdy5/F5pIFcJcGaHkhgq4bHAdQGSBtWLQKYuPtqA+Rj9lVLTYA8/v0d+r01E6wJ0LhxhudqpSZAzt+9Gnr+aunB8JoAOfH5U2uGR9trAlw7uz37BTBxNwrgigHeAdt5KTM1VzhxiGWr1/RAO/t+ouwQy7ZeE+ArMbTfQB9TdohlW6/5OIvLnzyh7PDKt17TA8uPboEeBDAR8lYA8gVWESlxDOTST30PCLoiI6jcaAkP7INXeZjlui/hgXxI8KFyJs9uuZtdc6RiCQ/kH61sRkoAtBfmm4BYAmAouGMoyHvhWA1tf5FyNQFesMgIC3dS4iQSa3LobCl6anOS0wPv3Y3uoc2NsqBBOT3wFtjJuXLvhn4O6i/2yl/k557w8ki0aYvLIjool+9ysntx6Ndn0DIvo/O2/U033wYTaoNf/klo/C3QGPkwCv8rpsJU2ZweyL466CXQi6F+27cjLafcjsZ+Dw3xwKModz30tBJ6lHlVyMBiy4e0mVwm50kk2Zg1NtAaQHflXlvNd41cF7HZ/UpyqhfP0pbmhvbWztIWMW4NnRiQIx44eiGFHmhl3HAvUx/74RCkL/wXGhce45IdAV7cEghfsE/N1uTXmGWPQyUiIAIiIAIiIAIiIAIiIAIiIAIiIAIiIAIiIAIiIAIiIAIiIAIiIAIiIAIiIAIiIAIiIAIiIAIiIAIiIAIiIAIiIAI5CYTO7svZZ2xb56DC86BPgXJxLX/iHZIkIPAP6O+gv4T+HPofaPPSsgO+EPQua55guwb+DaZxrjbDZqVVB3wViD3HofZPxLlC3q+h/uR3Fuv44UjnxLcQ5X48G8ovrP+XoZ9G2p+hTUprE1wN0rMssgs/hpDTDfuczyu6yU1OfKOT8e8NfwB15SJ3o7V4qw7ozza0NVRa49eiPT6rpq+ZW3XAFnesbCpAQA5YAKqaDCewRQfkOkp8RMHrJlNeO0kqENiiA74MnP1xH0Zaq08EKrjFcl36O2K5nuv19EF0zQfaXNPwo1Au6nMQyqOhZGECTd8hFWTxV7RN55NUJrDFI2Bl5OreJSAHdGkovjgBOeDiyNWhS2CLDvgoAOA7ZXsEwzcHb3ShKL4cgS06IO+Cn+Eg5mu/L0FD1j13qimag8AWHfAqgLsCysX2efT7KvRc6D1QycIEtvoY5ovgTJVUJrDFI2Bl5OreJSAHdGkovjgBOeDiyNWhS2CrDvgOQODrOD6KuQF6PlRSgcAWb0KuAWc6oAnnUdwB5T9W6k7YqCwUbvEI+B6w/anDl053OVTO50BZKrrFIyDnz7oz7pZirX56CGzxCNiDQUm1CMgBa5FXv3sE5IByhKoEtngNSOCHoPwnU4bfgH4XKqlAYIsO+AFw7hzWVyLOZ4IHoPc56YouQGCLp+Bvgau/esB1SJPzLeBwfhdbPALyGeCZPght1yGwxSNgHdLqtZeAHLAXy6oT/Qn2/nZTg5MDNrU7shjDlWRdeby70Vp8TdeAtJUrGjwcOvWtfmJroBewh3fxL4ZySWNXuGxvs7IWB+wiCb41svzpXNy/429qrGtxQIPG9Y7/AvXXcbGjI8sxv2noNLKAnECbnGjFO3yuALYKWYsDfhs0b1kF0fpGXlrfhHAL1nITIucL36erKrkWB8wN9RVo8BjUVkcoFbIP9iUZILCWU/CA+bOTeUpfQi5AJ+xr6q59CVua7GOrDujvjNwO4t8k+f1pe0dgq6dgOUAjBFp1wD96fJ7vbWuznwAXWLrYy7rT225qM/epJ9fgHo2GOHVy7q9W7kbda6F3QfvEP0Xm5jDVPr/4r4c+vc+4jGn85c83M7aXvanc4HMbeCEafDX0rBkN34g6PxqoN+UgA9WCk6faPw8tvT24tfiCt6HK16En4qsuW6N1ByxFY8pBUvst3X6qfc3Ub/UasBlAMqQsATngNF+uoMoJTMd3yjjTJCIwmwBPka76DfEa7YhXxi1vcZZhWV8s30I/X9sbJ2COYSFx8CX+rVBL88NrkUf1022bde2HAJZmIbIkInCKgDnGWMhHOUOnW75BYh7LjLVheSgmEYFTBHg9Z87B6ZgWd49ip0pPx/yjp/tvnFz6TSICIiACIiACIiACIiACIiACIiACIiACIiACIiACIiACIiACIiACIiACIiACIiACIiACIiACIiACJQn8D8TbvmgIoux5AAAAAElFTkSuQmCC;fontSize=18;fontColor=#000000;" vertex="1" parent="1">
                    <mxGeometry x="650.15" y="-645" width="80" height="80" as="geometry"/>
                </mxCell>
                <mxCell id="124" value="Issue_template.md" style="shape=image;verticalLabelPosition=middle;verticalAlign=middle;imageAspect=0;aspect=fixed;image=data:image/png,iVBORw0KGgoAAAANSUhEUgAAAKAAAACgCAYAAAH8yFe7AAAABGdBTUEAALGPC/xhBQAAADhlWElmTU0AKgAAAAgAAYdpAAQAAAABAAAAGgAAAAAAAqACAAQAAAABAAAAoKADAAQAAAABAAAAoAAAAACEJDuzAAALh0lEQVR4Ae2dP8w+RRHHXwVMjCYQosQCOkNhgj/pLO0MCWphQSG1CYkUVnb6dJY0FGiEzsTQGQtLQkVhgf9iIx2GwmDQaExUUGf0mZd993b3Zmb/3N7dd5P73d3uzOzMZ+f29u55n99zc4NCBP6j2D7dmtQ/cgbvzzVcvZTmj8jBdf+v6Pz2tGQwNnKrRAdZgx8NpaLjFEsRCQ1epJL3Qz0MO46PQw/vtJVCviMYnezYYGpQfkXhPUDbxwr7+yIEt6cpg/duWx0H3kHJdpXyMBS+hCc4BoE0gd9TdWoejOvS2olaVlwrfElmS+lKEa9iZb7OuVz+92/0T+lKyd1TxGBk6v+nJYOp8LkTt0GXhyWGyZDWPDyhwXiUP0GMfkNb6X7Co5wbsMXK4e8k/ARt85Ss61cXLwpXNTIKMxABgb0SSN0DPLHw6vR9j6Jntvb0w9Nd9qmhZHArBy8lp8K2rRwMfSg6O4ODobOL4/j2uRBIVGgvnPA+5c5Bj4Nhxwn/k1VDHQTBcAw0Q/x5Uvg3bR9ct/A4VxfL8JLQNQ+uOejJN/JlUd6kmicXtYqKNQdjE5e44gznpwz6DAOLGEEABEBgDgJriwHt2k8TzVpfGhsLmVYOuu2MemhaRK6tOJyDPFTx9raWxlWOc/G7Wh3rgrVForMNdU5uMcTcJz+zqMoWDoYE+fh7JU+tDnK+xTmYOn+q0GnsYJGmNQcfK3SsbYodLOajlaDWiZJcmIPhcVLH6mBqOFN1panHRNA6xGy8tpgctBKsdY71p3cwzLvwOBm8lWCPaaZ4FVtz8BTTzLFyUDPE/BEyv6iMX0pazsMLwERwzcHXyfKPabuPNr6geC+b5fwV0pPS1MEvidWGe5OD1mmmhZ/cp6xgwuOk7bUhDpUu4Unl8RtX/ZBmpck+6o+Q2edKprcY4tCfVYKWIQ4NX8KTymMZ7kozUAcBEAABEAABEAABEAABENgVAX5c8ZbiCzOv0QZ675KN5l/LbODXwoS8NV80bFTBfz3JPv1zZP9bP7C3jFVikfc9LW1nbUmnWYEdNfDrSi78jjVVLlT57VRDTV1vgG+Tc3Kpl/alz0S18UksqQyUtk9qjWnlvK+0tPZbfJii7auUgXKz5EFsWmRkmhrdyJjEksrAEsAL+eu+tKXTXjGXLltPG08JuVLKQIkzhiv17ku79yUsI58LumW9wIghcR/iR3wJ5+rVfkmnaoWJBUsZmAOVq1eHeSSAEsuhMpDnLM9cl9MpLXdKGZiDm6tXZ2DvOXDkMqYEI3ep5urVAKVTtcLEgqUMzIHK1avD7A0wdyl663lKyBWJZegc2PsSlhHOBd2yvpSBObi5erVfYkCtMLGgxDI0A6XTibmoXStloFwJPHWEJVcfyhSPjwRQYhmagS3mwHhUiyM2oPGniT5ycHP1CRPpqhqAkv5py3PViq/xYOfq1d7LCKgVdiqYA5WrV4dZk4GlTvj1EG+y3mPZtWPJjjW5nK2Sfg5Urp77UJVeAJ+m3h+kjR0UJ9eOtXIcWMpWSZ/bfkfbq6wcFLkCUzeeQCx/2AvgT/JdTtUi0CV7zc71AphzZC+Xds7/Rf1ogHu5tBegUAECIAACIAACIAACIAACIAACIAACIAACIAACIAACIAACIHBKAg9R1PL57Ux7/kG0XZTXycuZwIW+7ALgr68AZ/oNLoE4FKB8Mm/tVPTcn+hbO5xVXkBY/av+RN/a4azyAFg5MgC4EUABv5c5kL/OeqlklVQXEMnGQqVmDuTvdMidcW1f6KpJE/+pXZfSE+A3lR7/QSk3pZj3r7M0Gfhziljkpgy+hVPeDBS9vcyBLVglbQiIZGOhUjKL57ZTl7MDrL47nx1g9d3ZC1D0SnOgZRmztsyR9ummCwFhdUwzB2qXMdq+p1zuYBmjHb6MXM8MzHR5rGovQNErzYHHIpWJRkBkmrPVmjkwq3ykBgCsHM2eALGMKQyOgC/NgVjGFABq5kC8jakEWFA/TpNcitaINBlotblLeS9A0SvNgbsEYnVaQFj1kIFXYj0BYhlTSEtNBmIZUwAomVuaA7GMKQDUZGBB/ThNkknWiADwSgwArakTyXsBil5pDoy6OuapgLBGh0v4SgwArakTydd+qHSP7PFlzJt89Bgec12pXWRlL/KxLU07dTW+eAG+SK5+i7Y3x7s8V49egM9TGO/Q9gxtPB/yVMD73PGI9j9R/5+jbWjxAmQnv3/dhjo8W2fem8hscWzmDwBWogfASoA1c2Cp689QIy9FuMiSRHPs0Qnt5vRZpkvpAfA75OnHu3g7odEeAF+mOL9OmzzuyfKGw1879uiEdmN9Oeff23yJBVuXHgDfJSd/0NrRWe3hJlI5MgBYCbDHJVxy6XB355EAD3l3lrtUKWtatX2KDM16d36vVZCwAwIgAAIgAAIgAAIgAAIgAAIgAAIgAAIgAAIgAAIgAAIgAAIgAAIgAAIgAAIgAAIgAAIgAAIgAAIgAAIgAAIgAAK7IzDyL8sFziN0wN/Q/hptD9Mm30CMvx0Yn5PorazmOKXPevyfLnCRfnPHKf01ndBWjf7fyNBrtL1A25/ZKEobAhcyI4OIvY7Fj9qgn9PK6BmQf4Yz/AnOe3T+W9rYD/FFjuNzEknK5eq31g/9svjCXxj7BStfywe0H/klMul3yH50YDIQEhzfDuWWKHVn38djIrfyQ3IZ/QXhOAEPDdeZMadihAR0ZklHNSRgR7hxwuP2u4R9KkbxemOJo23Nqa5uJ7oaRp+lPr9y7fdntH/L6cMwtfhq691xDdzQt6fopOUvG7AttjlD8TJivWdpe/C6fWOGYNZ82GsC/pACe3QtOEM722KbMxRvAsa+7+IBb/QtOE547xrwsZj2gc69jFol7lCUcbC9O98lpN5QIvteRl69qPuxp0jAsbw1ve0ykTSBpWRG34JPBTcFXFHnZeTR2/ypefQMGPfnXQMqxnG3Il5G1gRk+c2fmuNge4+aFVLOn9avYVr/ZU7Na51WjHLscvWbPDXvNQFbv4bJDYq3vua1jjcBrXpWeS+Lot5e14BHfg0zRWIUs6Zh4+gZMO4Pa8DlYHoZWRPXKr/0tEFNHGwDk0UTUwRd9HD7Ri8jq55VvgsZJGAXrFVGp0iMqggMykhAA6xBot4EtOpZ5buEPzoB4/68a8Ajv4bxMrImlFX+EAnYKmi8humSDuON4jXMeOZrPXovUqueVX7Nb1d7PN27jBiUpgja4O8WoqdiNDoB4/68a8AtEmNUn15G1sS1yneJPw62SyeB0SmCDvyZ8dDLyKpnle/CCgnYBWuV0SkSoyoCg/JeE/DIr2G8CWjVs8ob0kovOjoB4/68a8Ajv4bxMrImlFVen1UGSbyGMcAaJDpFYgyK9Sa+2nr3eyq4TpheRlY9q7wznLIaErDMZ4vWKRJjVOCjEzDuz7sGHMVni368jKyJa5XvwiIOtksngdEpgg78mfHQy8iqZ5XvwgoJ2AVrldEpEqMqAoMyEtAAa5CoNwGtelb5LuGPTsC4P6wBl8PqZWRNKKv80tMGNaPfA/6RfOafaZCyyXdRpfOd7P+6Ez9dbsZXm8uIQelxkv2lQf7som8RgK8qIVhnNKu80g2b2OgZ8C/k3pM2FyF9ZAKjZ8Ajs9w6NuuMZpXvEh8SsAvWTYxaE8oq3yUoJGAXrDCqJYAE1JKaX846o1nluxAY/RDiDeKLpPhl2mJoXntn0Ht/JciY5SavxPYyA34BybeSTneb+edeX71bNefZXmbAl+bEt2uvMAPuevjgfBMCe7kFNwkWRu4QwAx4BwdORhOYIgH3sga0Dg6emq3Ebm7WnprtFhUaR70F46lZMfiByG6emgOfcQgCIAACIAACIAACIAACIAACIAACIAACIAACIAACIAACIAACIAACIAACIAACIAACIAACIAACIPAhgf8CpKQ0Yk3EtuAAAAAASUVORK5CYII=;labelPosition=right;align=left;fontColor=#000000;" vertex="1" parent="1">
                    <mxGeometry x="630.15" y="-385" width="40" height="40" as="geometry"/>
                </mxCell>
                <mxCell id="125" value="project_1.yml" style="shape=image;verticalLabelPosition=middle;verticalAlign=middle;imageAspect=0;aspect=fixed;image=data:image/png,iVBORw0KGgoAAAANSUhEUgAAAKAAAACgCAYAAAH8yFe7AAAABGdBTUEAALGPC/xhBQAAADhlWElmTU0AKgAAAAgAAYdpAAQAAAABAAAAGgAAAAAAAqACAAQAAAABAAAAoKADAAQAAAABAAAAoAAAAACEJDuzAAALh0lEQVR4Ae2dP8w+RRHHXwVMjCYQosQCOkNhgj/pLO0MCWphQSG1CYkUVnb6dJY0FGiEzsTQGQtLQkVhgf9iIx2GwmDQaExUUGf0mZd993b3Zmb/3N7dd5P73d3uzOzMZ+f29u55n99zc4NCBP6j2D7dmtQ/cgbvzzVcvZTmj8jBdf+v6Pz2tGQwNnKrRAdZgx8NpaLjFEsRCQ1epJL3Qz0MO46PQw/vtJVCviMYnezYYGpQfkXhPUDbxwr7+yIEt6cpg/duWx0H3kHJdpXyMBS+hCc4BoE0gd9TdWoejOvS2olaVlwrfElmS+lKEa9iZb7OuVz+92/0T+lKyd1TxGBk6v+nJYOp8LkTt0GXhyWGyZDWPDyhwXiUP0GMfkNb6X7Co5wbsMXK4e8k/ARt85Ss61cXLwpXNTIKMxABgb0SSN0DPLHw6vR9j6Jntvb0w9Nd9qmhZHArBy8lp8K2rRwMfSg6O4ODobOL4/j2uRBIVGgvnPA+5c5Bj4Nhxwn/k1VDHQTBcAw0Q/x5Uvg3bR9ct/A4VxfL8JLQNQ+uOejJN/JlUd6kmicXtYqKNQdjE5e44gznpwz6DAOLGEEABEBgDgJriwHt2k8TzVpfGhsLmVYOuu2MemhaRK6tOJyDPFTx9raWxlWOc/G7Wh3rgrVForMNdU5uMcTcJz+zqMoWDoYE+fh7JU+tDnK+xTmYOn+q0GnsYJGmNQcfK3SsbYodLOajlaDWiZJcmIPhcVLH6mBqOFN1panHRNA6xGy8tpgctBKsdY71p3cwzLvwOBm8lWCPaaZ4FVtz8BTTzLFyUDPE/BEyv6iMX0pazsMLwERwzcHXyfKPabuPNr6geC+b5fwV0pPS1MEvidWGe5OD1mmmhZ/cp6xgwuOk7bUhDpUu4Unl8RtX/ZBmpck+6o+Q2edKprcY4tCfVYKWIQ4NX8KTymMZ7kozUAcBEAABEAABEAABEAABENgVAX5c8ZbiCzOv0QZ675KN5l/LbODXwoS8NV80bFTBfz3JPv1zZP9bP7C3jFVikfc9LW1nbUmnWYEdNfDrSi78jjVVLlT57VRDTV1vgG+Tc3Kpl/alz0S18UksqQyUtk9qjWnlvK+0tPZbfJii7auUgXKz5EFsWmRkmhrdyJjEksrAEsAL+eu+tKXTXjGXLltPG08JuVLKQIkzhiv17ku79yUsI58LumW9wIghcR/iR3wJ5+rVfkmnaoWJBUsZmAOVq1eHeSSAEsuhMpDnLM9cl9MpLXdKGZiDm6tXZ2DvOXDkMqYEI3ep5urVAKVTtcLEgqUMzIHK1avD7A0wdyl663lKyBWJZegc2PsSlhHOBd2yvpSBObi5erVfYkCtMLGgxDI0A6XTibmoXStloFwJPHWEJVcfyhSPjwRQYhmagS3mwHhUiyM2oPGniT5ycHP1CRPpqhqAkv5py3PViq/xYOfq1d7LCKgVdiqYA5WrV4dZk4GlTvj1EG+y3mPZtWPJjjW5nK2Sfg5Urp77UJVeAJ+m3h+kjR0UJ9eOtXIcWMpWSZ/bfkfbq6wcFLkCUzeeQCx/2AvgT/JdTtUi0CV7zc71AphzZC+Xds7/Rf1ogHu5tBegUAECIAACIAACIAACIAACIAACIAACIAACIAACIAACIAACIHBKAg9R1PL57Ux7/kG0XZTXycuZwIW+7ALgr68AZ/oNLoE4FKB8Mm/tVPTcn+hbO5xVXkBY/av+RN/a4azyAFg5MgC4EUABv5c5kL/OeqlklVQXEMnGQqVmDuTvdMidcW1f6KpJE/+pXZfSE+A3lR7/QSk3pZj3r7M0Gfhziljkpgy+hVPeDBS9vcyBLVglbQiIZGOhUjKL57ZTl7MDrL47nx1g9d3ZC1D0SnOgZRmztsyR9ummCwFhdUwzB2qXMdq+p1zuYBmjHb6MXM8MzHR5rGovQNErzYHHIpWJRkBkmrPVmjkwq3ykBgCsHM2eALGMKQyOgC/NgVjGFABq5kC8jakEWFA/TpNcitaINBlotblLeS9A0SvNgbsEYnVaQFj1kIFXYj0BYhlTSEtNBmIZUwAomVuaA7GMKQDUZGBB/ThNkknWiADwSgwArakTyXsBil5pDoy6OuapgLBGh0v4SgwArakTydd+qHSP7PFlzJt89Bgec12pXWRlL/KxLU07dTW+eAG+SK5+i7Y3x7s8V49egM9TGO/Q9gxtPB/yVMD73PGI9j9R/5+jbWjxAmQnv3/dhjo8W2fem8hscWzmDwBWogfASoA1c2Cp689QIy9FuMiSRHPs0Qnt5vRZpkvpAfA75OnHu3g7odEeAF+mOL9OmzzuyfKGw1879uiEdmN9Oeff23yJBVuXHgDfJSd/0NrRWe3hJlI5MgBYCbDHJVxy6XB355EAD3l3lrtUKWtatX2KDM16d36vVZCwAwIgAAIgAAIgAAIgAAIgAAIgAAIgAAIgAAIgAAIgAAIgAAIgAAIgAAIgAAIgAAIgAAIgAAIgAAIgAAIgAAIgAAK7IzDyL8sFziN0wN/Q/hptD9Mm30CMvx0Yn5PorazmOKXPevyfLnCRfnPHKf01ndBWjf7fyNBrtL1A25/ZKEobAhcyI4OIvY7Fj9qgn9PK6BmQf4Yz/AnOe3T+W9rYD/FFjuNzEknK5eq31g/9svjCXxj7BStfywe0H/klMul3yH50YDIQEhzfDuWWKHVn38djIrfyQ3IZ/QXhOAEPDdeZMadihAR0ZklHNSRgR7hxwuP2u4R9KkbxemOJo23Nqa5uJ7oaRp+lPr9y7fdntH/L6cMwtfhq691xDdzQt6fopOUvG7AttjlD8TJivWdpe/C6fWOGYNZ82GsC/pACe3QtOEM722KbMxRvAsa+7+IBb/QtOE547xrwsZj2gc69jFol7lCUcbC9O98lpN5QIvteRl69qPuxp0jAsbw1ve0ykTSBpWRG34JPBTcFXFHnZeTR2/ypefQMGPfnXQMqxnG3Il5G1gRk+c2fmuNge4+aFVLOn9avYVr/ZU7Na51WjHLscvWbPDXvNQFbv4bJDYq3vua1jjcBrXpWeS+Lot5e14BHfg0zRWIUs6Zh4+gZMO4Pa8DlYHoZWRPXKr/0tEFNHGwDk0UTUwRd9HD7Ri8jq55VvgsZJGAXrFVGp0iMqggMykhAA6xBot4EtOpZ5buEPzoB4/68a8Ajv4bxMrImlFX+EAnYKmi8humSDuON4jXMeOZrPXovUqueVX7Nb1d7PN27jBiUpgja4O8WoqdiNDoB4/68a8AtEmNUn15G1sS1yneJPw62SyeB0SmCDvyZ8dDLyKpnle/CCgnYBWuV0SkSoyoCg/JeE/DIr2G8CWjVs8ob0kovOjoB4/68a8Ajv4bxMrImlFVen1UGSbyGMcAaJDpFYgyK9Sa+2nr3eyq4TpheRlY9q7wznLIaErDMZ4vWKRJjVOCjEzDuz7sGHMVni368jKyJa5XvwiIOtksngdEpgg78mfHQy8iqZ5XvwgoJ2AVrldEpEqMqAoMyEtAAa5CoNwGtelb5LuGPTsC4P6wBl8PqZWRNKKv80tMGNaPfA/6RfOafaZCyyXdRpfOd7P+6Ez9dbsZXm8uIQelxkv2lQf7som8RgK8qIVhnNKu80g2b2OgZ8C/k3pM2FyF9ZAKjZ8Ajs9w6NuuMZpXvEh8SsAvWTYxaE8oq3yUoJGAXrDCqJYAE1JKaX846o1nluxAY/RDiDeKLpPhl2mJoXntn0Ht/JciY5SavxPYyA34BybeSTneb+edeX71bNefZXmbAl+bEt2uvMAPuevjgfBMCe7kFNwkWRu4QwAx4BwdORhOYIgH3sga0Dg6emq3Ebm7WnprtFhUaR70F46lZMfiByG6emgOfcQgCIAACIAACIAACIAACIAACIAACIAACIAACIAACIAACIAACIAACIAACIAACIAACIAACIAACIPAhgf8CpKQ0Yk3EtuAAAAAASUVORK5CYII=;labelPosition=right;align=left;fontColor=#000000;" vertex="1" parent="1">
                    <mxGeometry x="630.15" y="-305" width="40" height="40" as="geometry"/>
                </mxCell>
                <mxCell id="127" value="ISSUE_TEMPLATE" style="text;html=1;strokeColor=none;fillColor=none;align=left;verticalAlign=middle;whiteSpace=wrap;rounded=0;fontColor=#000000;" vertex="1" parent="1">
                    <mxGeometry x="620.15" y="-405" width="160" height="20" as="geometry"/>
                </mxCell>
                <mxCell id="128" value="PROJECT_TEMPLATE" style="text;html=1;strokeColor=none;fillColor=none;align=left;verticalAlign=middle;whiteSpace=wrap;rounded=0;fontColor=#000000;" vertex="1" parent="1">
                    <mxGeometry x="620.15" y="-335" width="190" height="20" as="geometry"/>
                </mxCell>
                <mxCell id="129" value="&lt;meta charset=&quot;utf-8&quot; style=&quot;&quot;&gt;&lt;span style=&quot;font-family: Helvetica; font-size: 12px; font-style: normal; font-variant-ligatures: normal; font-variant-caps: normal; font-weight: 400; letter-spacing: normal; orphans: 2; text-align: left; text-indent: 0px; text-transform: none; widows: 2; word-spacing: 0px; -webkit-text-stroke-width: 0px; background-color: rgb(248, 249, 250); text-decoration-style: initial; text-decoration-color: initial; float: none; display: inline !important;&quot;&gt;.github/&lt;/span&gt;" style="text;whiteSpace=wrap;html=1;fontColor=#000000;" vertex="1" parent="1">
                    <mxGeometry x="580.15" y="-515" width="60" height="30" as="geometry"/>
                </mxCell>
                <mxCell id="130" value="" style="endArrow=none;html=1;exitX=0;exitY=0.5;exitDx=0;exitDy=0;edgeStyle=orthogonalEdgeStyle;rounded=1;fontColor=#000000;strokeColor=#333333;strokeWidth=2;" edge="1" parent="1" source="127">
                    <mxGeometry width="50" height="50" relative="1" as="geometry">
                        <mxPoint x="610.15" y="-275" as="sourcePoint"/>
                        <mxPoint x="600.15" y="-395" as="targetPoint"/>
                    </mxGeometry>
                </mxCell>
                <mxCell id="131" value="" style="endArrow=none;html=1;entryX=0;entryY=0.5;entryDx=0;entryDy=0;edgeStyle=orthogonalEdgeStyle;rounded=1;fontColor=#000000;strokeColor=#333333;strokeWidth=2;" edge="1" parent="1" target="128">
                    <mxGeometry width="50" height="50" relative="1" as="geometry">
                        <mxPoint x="600.15" y="-325" as="sourcePoint"/>
                        <mxPoint x="620.15" y="-425" as="targetPoint"/>
                    </mxGeometry>
                </mxCell>
                <mxCell id="134" value="workflow" style="text;html=1;strokeColor=none;fillColor=none;align=left;verticalAlign=middle;whiteSpace=wrap;rounded=0;fontColor=#000000;" vertex="1" parent="1">
                    <mxGeometry x="620.15" y="-475" width="160" height="20" as="geometry"/>
                </mxCell>
                <mxCell id="135" value="" style="endArrow=none;html=1;exitX=0;exitY=0.5;exitDx=0;exitDy=0;edgeStyle=orthogonalEdgeStyle;rounded=1;fontColor=#000000;strokeColor=#333333;strokeWidth=2;" edge="1" parent="1" source="134">
                    <mxGeometry width="50" height="50" relative="1" as="geometry">
                        <mxPoint x="610.15" y="-345" as="sourcePoint"/>
                        <mxPoint x="600.15" y="-465" as="targetPoint"/>
                    </mxGeometry>
                </mxCell>
                <mxCell id="154" value="project_action.yml" style="shape=image;verticalLabelPosition=middle;verticalAlign=middle;imageAspect=0;aspect=fixed;image=data:image/png,iVBORw0KGgoAAAANSUhEUgAAAKAAAACgCAYAAAH8yFe7AAAABGdBTUEAALGPC/xhBQAAADhlWElmTU0AKgAAAAgAAYdpAAQAAAABAAAAGgAAAAAAAqACAAQAAAABAAAAoKADAAQAAAABAAAAoAAAAACEJDuzAAAYI0lEQVR4Ae1de/BdVXVOyQ+KoVCB8DBMqOZBeAmCmDIpVCUBQqG08hKTlg4MDVKoTmkLCliObQyDf7RVFBBmyAxgCAjShlghlLFCm1EKRcrDYEigYdAJLyUJAROI/b789orr7rvPOfu87j33Zq2Zlb322muvvc539tmvc+4vY8Zs9/QrhYCWlXqbqMu1HDQQ5WwRvDTkoMuWRve5ihtdSl0ai+0GZevE0URa/YHS3qFkLYrtfyhl0FYMaadlVW+ryDJdrmXfNjdfqbLvvVZn033vZfOPl63IevqSKOu87zdRCi1vU4cqd3VWZx1yMJVlI85AkssgXCMZpN8F/wY4AefRXBgk2igU4WJtoOSOik5/pirfJmqnWt5moIQkRVZqE7cPBG53l/lOxOXm2h7oOclyGm27L5zqDk05xGx7H8+WukxalFnaWRi0vU7Z+JekiraKv1SKPFtl2i2Og8ofobqtIjXvRtpFmekbFVUhy6iSM7lb0gdvymjpDFd2VZqNf7fEach+L0+5zSnnC02JyogsqSrqnDt0QZYsz2qWjZTJ5Ut+a1qkY5+iavqXr4pMNARqQGAxfHBoEJ5dg0+6qOyXAaXRNBRklafVoz6rXrTfNCdb0MBm1XqanTLpENPsM/3mTV7i9OdoaoeO5qplxO/LZf2Kg7Qw8srL1uvym4agTDJdFdAyy6Q8LRBfTz+fV/Xq8uu3Uyj/z7AOBVLISRPGDOqZJhxX8Xk4KjeCVl5f4gHMWSrykyDLqQ/VDIpc9Ann/vcQsNA3IayUTEyahYYMqLvFOPJsEi+vs+ORySrfZpsV3DYjCLF2UicRISftsCt6a3J89644D5288rRIO9AJGHWV5z0koUDy6gTa7VJ1BQKLkK6roikMAUPAEDAEOhHgQC38VmdRpZz4ZFrKrzjQUcxAhvr5WllQrsXvOjTK3VYasZHJaYUZ+tr8MoA8irHxfcTU6bLxl1sL4PUG37PLd1VOsQupa/PLI+2dAgH5wTFflGP9dlygj+D9KJXzzXtUEKElFnWxfK/yS1kuLuQXxdmk0bo6xVTbpJh0qXWdr3WVjiq0TYrJ6NUdlVo6Om4tyyhPK2Ljtfmls1AQ1EddpRflFFevsF+/D4pf9g15QyVBMT0dXLTfPIQ63PNKf63LL1xWJ7m46p4a8MDg7mrAby0uGVwr36DMRWAMrpX0GqKqPbi0p7goAgxsBFz0CS/aTil7Bnd+qZoRlfKuWN+yt+HvPcrn7pBfB/MuaDtlkiomqoRvagsvgtmg36heUd8aKFdtpooJSsia9kcmAc/Uyiw5ZuXrB5/lT8ouh3CpZAJpAt0eAX2XKqbxGBvfceIrAvkuG/8p5sr3+kDFqqpZcPBoGScjXqW/Rn5Xp0uQCm+EzAeKDwl1mi5BJua8er6uVFZegopzIioXvcX0eViE3yTCpuvpDdUpGiB9JCFHnq7Lxu+DYp+38n1ADAum+2XYX4my1RnlHUVEKBQE9WXQE+cJhHMko1LqyV2UNZP8CNZ8xaWJK+pva0UJ+ULU4apa053ItO79ng7QZEPAEDAEDAFDwBAwBAyBgUBgGaKURXVMWuaNWZ1AtCZeAeutAlc3T4Fdy464QNutifc0BUKB+DtMNZAdBQ1kWhXvLrhAuZNFrpWHkaynaQYy1BXpwbp+jNy6eFe4iz4iJnpnS5D0L6h01TI3Q9fPk8vGy1PtEFWO91V4pZM9lfebnY76iU4vDa1TdiFR7JpO0+J9H4LiIY+0zw//s0jssmwyy05EKZ2sCljd5spYvjZQHlJVDijkVOmy4r0bdtL+i6pOlij2WTa5ZU/Ago64HKhCEkzWMV8V/1K3lfGejegEgKwTYbkInfLLKqmr9U3J8jZO2mxVvBpIBshHew6YYw6/JeJkcx1YgmeaNy7CpBa6CF6k3UecxzbHuzVEjjlLwJxsOPOuAPP9GZcTvaINaEiAOyin0TbEmxNib4qPUaBlfXzZm2gGqJWVCji+QzKKQGACbOQR3RxhbyYOgaUKuGsMlTgEdlSgsdftHFfNrK5SwIVe6htCKQhw6SPjG7/WGjgqs63ilu74Alc6BbZ6L30y8hzfSP8Hfj+FBomfk0wq4P+rsOX3hVE0EmU1asSeQnobHAs8D1KfYyXQerB8/zUL8oNUNkiJ882zSZGdKjXhtu8zrvRhpLXEeBocyWPmfBdOenkifTCiSxwXDtRVIJCJY6cql5Q94Q21NgNK3ogmT6S5H08cI6lEHJMT8JVZXtK+wZM6jznhSFEgHQu+DKz/wMxM5C8Bi7+QzXKUk5pcmlww2sSYb7i0SrLGVR7JcpJZiIrjXWVxxiwnkPeAjwbfByYdO5qMOQnpd8AhG2cSTKZCOzdYUk75Rrlq9dfKOuEt01rVsTSvzSkwSMCfzTOMLKcvcirJI5dmcD8KeMI7CVx1gSuzeOwMnhZTlp4z/lrw7mAuX6pQ4ipLGvQVezFno/btzsNHkBb5rp3HTfIDptj2XFOlkw+ippzW3AT5pQKe+IuHcc4+yatX9II0kPS9GvwFMHsq13mHgLlk+TRYiPrdJNPjVAPJpvkW7ntg9tRNYN7YD4O5bBGifoFk8tKiAPr+OEZeBOYShYvk58H8zvtL4DfBbSOOkdPBE8Fc8vwC/GPwQ2ACZ2QIGAKGgCFgCBgChoAhYAgYAoaAIWAIGAKGgCFgCBgChkDtCPCVJt/vyksiP11ce4vVHLYm3skZoPkgMr+s2nVXrt2qeOcr8Pi9CY/x04gvoDSgaXZN6lsVrw6GL41iST/msXXqsGtVvPoxmFbi6vhak71xXYm6Zaq0Ll55FIv0PP/CxQe/9GqapK1WxMvZiwFxzKtCB6KyXFgVP3l1WxevjGFZE4Z/UX/qwHrRKxAA+clcU1QmXn4CwtgaiVcuOvaCL3DBsN4feZWud2ULPH2d2aLx8qMAqdNIvOI85iL5faDYnxqowB8isnxFoKwulbQf4+9zMBL7UwIVaolXGtD+qXtaKyDz+xix5beBIdoJSrFpOtXts62ntALy1WCJ4eNemWQlXv6SoDRJI9qB6FY6JX9FJLpjtKEn76nsxL6pVDctbUjP/7qK43e1oSdLvPwlammSxrWDHZERPT8gEll/4aTtRZ7jbJeIooFUYtGupSexTMfLL7eyqJZ4QwGx0bFgKWOaFwzrrHJ1TmSmIZKYfPf6ptNmqm8QyNcS7x1wzAYXBRrgp3FvgA8IlIVUaRcXsi2ry4p3BE65G5oY6byWeAlSHY6WOT9PRAZf1qyV8crFc5Fahjg21nETYttuZbwCAA8GipAGj58H94IWoJFWxitBMeXeNo+kJ9Cef8mjF8T1qY5T5NbEy0FYghJguGLnUoHrpjlgmb3Erlc9bzPaljYnQCa1Mt7TEJgEmpU2PWFsRQj/7KXieVeUKm1bvNtC46kKxxuu8Lnd4Yp9CbjJdR7cd5AGR3ZGHQYq04Z4VTj9F7+FEOQJuLb/4QxWBPw5l4CXtf8erKvqQbT+FpKPpVEkAgfBTnrdhsg6ZuYQ+FsF3sOGSjEEfqjAkz8IUczDdmwtL4n46E7ZjnEofOn8eayMd0zzfhheuIFhrjBTgffSMF9oE9d2owLvtiYaGGafLyjwTh7mC6372niKvEWBt3vdDQyzv/0VcJXevw4zSGnXdr4Cj//P3kASH58yxK+g7gHvnFL5Tug/mVJG9QPgWa78i0gTJzeV8DUm4xlJaYAn2TzdKUxFAZyMFp4r0AqBOsGzfwN5rvNIHwI3efC6B/wX2b3wz7jcAo6mIgDOh9crnGee/P4+eLnL+8kiKD6llGyHvVW/2dsJ+c3Kpm6R68ljnVMuxheC17i8n5wBxaFKmSi5FpHgyc5gXgGPeism9V8rUL+sKcFLHPPNYCxdCcPEcWydXDs+tnLx03Ktuw3kG2n6WNpdXLuGj23ieHwJ7/zTT6x/eUzdmD2mjHkXwOGzMU49m71V/mYlNyXKmMebVebLqi+7wDjEHJwXZB6AnG1JHPO4zSpLPAwl3T2aNPavfDTE3v5ohVa+7uqelecjD0AuVUicMKqQfJtHH00ew8vSaWGVYFH3FVWfPTGV8gCUdd7yVA/xBTc4U5nJ42vGW4440zXxVVItpQdndp48AEPe+VhfBh7rCunjEjBnPiHfhnoZAvgudxDoMRekDD/BmOWOBQtTlEc7/d8gvQbMdByYa64HwSTfhjqu9kkfGE06/k06cu3IyGP83qxwyvRA8Sc7CAFG9DoVG+p2dQXrtYGT1wV0/VbJ2LepSiCy/qviQ+rOgUB/S0TRQJrAJ7kOOgxOEjDjTqUqPTDVaUrBfKeXJUKKWWvUx7lIHsmKKA/AO13lRVlOIstk7Ls/0r6MmQwnZ5Sp7NWRsU82El7xaDYPQFlX6YOBoKMcJU9lSHpMHNXU+68cSemDgTItnOMqrc2rnAcg68vF82CgDB2FSrNcRR5fNU2rXQM8GChD+6HSJFfx+jwHMQCe4JxwUf1ynkOvnOD9t9NV7cWe69TsLa5kBCkPBooQwftzVyFq21nkPJAzqBAXl3p7JnqdsudKz+Od/Atd2AM5UW1w4pJ1nVJ3iHxspedxF7K0ozQlUwRAuuB6TdZzzHN7xh0GB2/q+XUqZ1uZMCBuPVhdTKEPdDnalPUcmycwj4EJJvVTwMeBZcKAuPXA40kKMVQUQPrkViyme3PC6MWYx5iy6GAU5p6qwIYTRu6Y5zdUBkDxsQuEK8AElD2OO4zlYD4uTS5V4L4UscfxYIDDD3vcJvCL4EfAmUsVlBsZAoaAIWAIGAKGgCFgCBgChoAhYAgYAoaAIWAIGAKGgCFgCBgChoAhYAgYAoaAIWAIGAKGgCFgCBgChoAhYAj0AoEqX7VViY9fxB0D/iiY34EfAB4Plm82+YXcq+CfgJ8Cfx/8n+A3wUb5CBi+Hkb89PJHYPm9U9WUvujTaBQBwzfQE86Gbh04rbOtQhk/RJ4DPgK8J5jf3pIpU8cy2vAHH2l+2Abb2t7I8E2549dBH+os/K3IgSl1iqjpg75CbbDtYSfDN+UO84n0OwV/DcZfeDVF9M02/HaHcUQ0fDN60TKvE7yFfJMdzw/lI1CwTd0RGdOwkOGbcSf9zQWnx36RPzUztkEnwzfjDt6BMj3q3J5hW7XoE3DAHwOST8pwxhh0TP36aW1GiNFFhm8GVPwttb7R8qcJMqqUKjoPtfjH4nRb7IRZ5O+aGeugUa/wPR/ADCS+SxC47hQ8MqmTLoazLWDdxibkT49ohLHoev8aUadtJk3j+1ceRsSL+HKmyaNW4Ms3Ffom8+wuRPz7xp93TDmPPgcD7ZcyNxhZ067vk7H4PgY9Xxe+SQCbjdCdAI4lH1/2hZ7TL9Givqk8QA7Reii13QrkJwQM/8GzY50N4I+BixJj0W0OgxyL7zO49n0DgP1jABMe4vOVaFHy8WVf6DmxI+kbe0RKBL8JvT+dsB7XafzLKP8E1n4o/wJ8NLgsMRbtk7EOGhXBdykuTl8v5WfBE8E3Bco4Yh0JLkutwHcBotcXnfcWYgT2/q5O16dMYNI6Moqiia/vtG/GOmhUFN8dcYH/AtbX7cs/RflBNQDRCnz5xYV/+Dsj4uJ2gM1CsAbnZ8jXAQybZwzaN2NkrINGZfHlg/4tsMbgeeQ529RBrcJ3Nq5IX+g7yNfxvrcsUGybMeiYGOOgkuEbcedOg42+4ZTnRdSr24Rt+nEwtkEnwzfiDk6GzTqw7gD8SGBaRN2qJmzD/yCBsTCmYSFeCz/GNXxz7uh8DyQCxjVYEyMiffprULbHGIaFeG56L1h3PF82fAN3O9QRCRzXZ4vAMZsV3y3rsK6/xpMbMkwdbyau8zWwXJukL0E3HWz4AoQY4tSxDCwA1p3S97BMtTxGuTEFq9ug3xnsk+HrI5KR5w+guKvjWWBo6szrnKzDuoO8q0X4XXQ4NC+A/et/A7qTwbFk+MYiZXZj2Fn+Dux/bMFO+O/g3cFGhkDtCOwPj4+D/dFuE3Tn196aOTQEHALsXP7HG+yE/Nr5d5yNJYZArQhwGvV/IsBOx2n3i2BOw0aGQO0IcOPADYQ/zb4AHTccRoZA7QjwiORWsN/pmOfnUDuBjQyB2hHgz0F5OOx3vNehm1V7a+bQEAAC/JzsarDf6Zjnh6ExPzuAmZEhUAwBvnV4Gux3PB6Qzy3myqwNgXgELobpZrDf8X4I3YR4N2ZpCMQjsBdMHwL7nY6/n70s3o1ZGgLFEDgd5vwlnt/xVkJX108GikVk1kOPAH97cRfY73TMfxU8AjYyBGpH4Bh4XAv2Ox6/rmaZUQ8Q6NfrII46vMkfBR8KPgA8Htz034geizb4A+3PgH26G4o/A/PT90EnHnzzw4f3g/cG8y8ZjAPLgTg/ftgI5kevfOBeAK8BU99T6lUH5A9rrgIfVtPVPQE/fw/+dqQ/rt+WgKd49uxs7HTsfINMByN4Psz71HQRnBm+D36mJn+pbprsgGej1RvBMqr5QayGYhn4YfCPwXwC+Wc8SKzDJ5gd51jwCeBJ4BCxzjzw4kDhpdDx0HgHr4xtcsPxiqcfpOwHEewfgmVU82P/ORSrwMSV18n30zLCsc5vg7nbJ8484+THEyFinXvBT4YKq+qa6IDXIagLA4E9AB2nvqp/JuNA+ODm4HiwT9dDMR98D3i6V/gO8peAr/X0g5Y9BQEfFQiaD/R3wVUfKnbKk8ChB/5R6Pm2pzaqswNyxLvdi4xg/AGYgTdBvBH/BiZoacTR9VTwc2kGA6LniMdRW9NGZL4J5vvoJmg/OJ0L5vpR093I1DIi1tUBOZXqEelt5Dl1NtXx4LqD2BE5rfKrFKHnIXDNt0UUA5yeg9j1iMTRfCG4qY7nQ8WOeC5YH0lxxL3FNyyar6MDckOgNxecarlm6wf5DwJj+1A/AqmxTS5n9lH+arnxyl8R0X8Q1qIylz2laWzpmqMV70BynPLBKfiPVb7X4q1okGvEQ13D+yLlDvEulx+05EwE/AEV9FOQ/WWOKm5c5AM9Hry3a+m3kHL584zLF052KFzj1xVOhHjWr7Nb/97fHJXvl/gpNMxRQogxMtZBIy4fDlFBc1fbhgeJMTAWIcbIWEtRlQ54kdfiF7x8P7N+LH6s/Ywttu3pnuH3vHw/s34sfqzRselFZXQlZzjDq3C/l5fsbAhHS8alP0B6n9JxA/N7Kk/xv8BcTwrF+BFbPxY/VrHT6VRkeK62m1a2SG7TLt6PZWJZnKqMgLt6ja738pI9XASV+roPqzIRfZ1fh3YhHfV+LH6stPGpzZ2PsW7yA+5j3o8l7TA8N8Qqu+AV8D5NtXAk5MdVXkRudDjCSWfhQpYj27tgIY7EPPyU3fT/QuahKo8bhGL8iO0REP5HMkifBXNzMkj0lwh2TxXwNyD/TOX7Kb4PjV+gAngN8rUqHy1W2QVPQCvHqpZ+Bfk7Ki8i9RyyOaWSKVOnaQsyPwE/7JgydZpi/Ij9VRB4Nih0E4QHJTMgKZcC+3uxEpc20McQBO+/EB92vfETfW5aZQTcBd5fBe+sWuE6brnK90OcgUbZ0YXehsCjgzdFMSApp7VLwXqdfjPya/ocPx+K81QMnKW+DN6kdNFilTUgb+gnvJYeQr6fUx3bZgyaGOOgdT7GzxvKc1ZN5yKzl1b0WGbbjEETYyzV+eikyhTM+pxOnwR/khkQO/TFYK5VHgP3kuahMe6s9UN1OvL39jKImtt6Hf5eBvOsjcQZi0ceG8A/BfeSuKT5E7CeNe9Enuvr0qSdlXaCipPB3IDsqpy8AplrxEoBKn9pIjdCXDvqkWE98tyIrAIPA+2Bi/g0mNOy0EYInJK5DGqSuHw5DzxONcIR7wYwH5BKVFcHlCDmQ7hCMi7lGuyz4Bs9fdUsR7yvgPUalD6/BL6SwhDSTFyT3vjxErkG48j/KDM1Eke82WC9BqV7Puy1bejq7oAMkBTqiNS/C+aw/TXwcnARmgFjHk2cCR4bqDjMHc+/3FBHpA1PCp4GPwJeAy5C3Fxweud0H+oXtXY8CSzUkJTVkU6GE34tcXwdzgI+eJ54IXhYptrAJWaqODWfAp6UaVW+cDWqLgVXnmrTQmi6A/rtckg/F3wq2J86fVs/z6l8CXghmFOOUTcCU6Hi52dcF/tTZ7d1p4ZTOdfr/KOZKzuLLGcIGAKGgCFgCBgChoAhYAgYAoaAIWAIGAKGgCFgCBgChoAhYAgYAoaAIWAIGAKGgCFgCBgChsCAIPD/TjBfe/sJBl4AAAAASUVORK5CYII=;fontColor=#000000;labelPosition=right;align=left;" vertex="1" parent="1">
                    <mxGeometry x="630.15" y="-455" width="40" height="40" as="geometry"/>
                </mxCell>
                <mxCell id="165" value="Create" style="shape=singleArrow;whiteSpace=wrap;html=1;strokeColor=#6c8ebf;fillColor=#dae8fc;arrowWidth=0.6866666666666664;arrowSize=0.21428571428571427;fontColor=#000000;fontSize=18;" vertex="1" parent="1">
                    <mxGeometry x="420.15" y="-445" width="140" height="120" as="geometry"/>
                </mxCell>
                <mxCell id="168" value="project_action.yml" style="shape=image;verticalLabelPosition=middle;verticalAlign=middle;imageAspect=0;aspect=fixed;image=data:image/png,iVBORw0KGgoAAAANSUhEUgAAAKAAAACgCAYAAAH8yFe7AAAABGdBTUEAALGPC/xhBQAAADhlWElmTU0AKgAAAAgAAYdpAAQAAAABAAAAGgAAAAAAAqACAAQAAAABAAAAoKADAAQAAAABAAAAoAAAAACEJDuzAAAYI0lEQVR4Ae1de/BdVXVOyQ+KoVCB8DBMqOZBeAmCmDIpVCUBQqG08hKTlg4MDVKoTmkLCliObQyDf7RVFBBmyAxgCAjShlghlLFCm1EKRcrDYEigYdAJLyUJAROI/b789orr7rvPOfu87j33Zq2Zlb322muvvc539tmvc+4vY8Zs9/QrhYCWlXqbqMu1HDQQ5WwRvDTkoMuWRve5ihtdSl0ai+0GZevE0URa/YHS3qFkLYrtfyhl0FYMaadlVW+ryDJdrmXfNjdfqbLvvVZn033vZfOPl63IevqSKOu87zdRCi1vU4cqd3VWZx1yMJVlI85AkssgXCMZpN8F/wY4AefRXBgk2igU4WJtoOSOik5/pirfJmqnWt5moIQkRVZqE7cPBG53l/lOxOXm2h7oOclyGm27L5zqDk05xGx7H8+WukxalFnaWRi0vU7Z+JekiraKv1SKPFtl2i2Og8ofobqtIjXvRtpFmekbFVUhy6iSM7lb0gdvymjpDFd2VZqNf7fEach+L0+5zSnnC02JyogsqSrqnDt0QZYsz2qWjZTJ5Ut+a1qkY5+iavqXr4pMNARqQGAxfHBoEJ5dg0+6qOyXAaXRNBRklafVoz6rXrTfNCdb0MBm1XqanTLpENPsM/3mTV7i9OdoaoeO5qplxO/LZf2Kg7Qw8srL1uvym4agTDJdFdAyy6Q8LRBfTz+fV/Xq8uu3Uyj/z7AOBVLISRPGDOqZJhxX8Xk4KjeCVl5f4gHMWSrykyDLqQ/VDIpc9Ann/vcQsNA3IayUTEyahYYMqLvFOPJsEi+vs+ORySrfZpsV3DYjCLF2UicRISftsCt6a3J89644D5288rRIO9AJGHWV5z0koUDy6gTa7VJ1BQKLkK6roikMAUPAEDAEOhHgQC38VmdRpZz4ZFrKrzjQUcxAhvr5WllQrsXvOjTK3VYasZHJaYUZ+tr8MoA8irHxfcTU6bLxl1sL4PUG37PLd1VOsQupa/PLI+2dAgH5wTFflGP9dlygj+D9KJXzzXtUEKElFnWxfK/yS1kuLuQXxdmk0bo6xVTbpJh0qXWdr3WVjiq0TYrJ6NUdlVo6Om4tyyhPK2Ljtfmls1AQ1EddpRflFFevsF+/D4pf9g15QyVBMT0dXLTfPIQ63PNKf63LL1xWJ7m46p4a8MDg7mrAby0uGVwr36DMRWAMrpX0GqKqPbi0p7goAgxsBFz0CS/aTil7Bnd+qZoRlfKuWN+yt+HvPcrn7pBfB/MuaDtlkiomqoRvagsvgtmg36heUd8aKFdtpooJSsia9kcmAc/Uyiw5ZuXrB5/lT8ouh3CpZAJpAt0eAX2XKqbxGBvfceIrAvkuG/8p5sr3+kDFqqpZcPBoGScjXqW/Rn5Xp0uQCm+EzAeKDwl1mi5BJua8er6uVFZegopzIioXvcX0eViE3yTCpuvpDdUpGiB9JCFHnq7Lxu+DYp+38n1ADAum+2XYX4my1RnlHUVEKBQE9WXQE+cJhHMko1LqyV2UNZP8CNZ8xaWJK+pva0UJ+ULU4apa053ItO79ng7QZEPAEDAEDAFDwBAwBAyBgUBgGaKURXVMWuaNWZ1AtCZeAeutAlc3T4Fdy464QNutifc0BUKB+DtMNZAdBQ1kWhXvLrhAuZNFrpWHkaynaQYy1BXpwbp+jNy6eFe4iz4iJnpnS5D0L6h01TI3Q9fPk8vGy1PtEFWO91V4pZM9lfebnY76iU4vDa1TdiFR7JpO0+J9H4LiIY+0zw//s0jssmwyy05EKZ2sCljd5spYvjZQHlJVDijkVOmy4r0bdtL+i6pOlij2WTa5ZU/Ago64HKhCEkzWMV8V/1K3lfGejegEgKwTYbkInfLLKqmr9U3J8jZO2mxVvBpIBshHew6YYw6/JeJkcx1YgmeaNy7CpBa6CF6k3UecxzbHuzVEjjlLwJxsOPOuAPP9GZcTvaINaEiAOyin0TbEmxNib4qPUaBlfXzZm2gGqJWVCji+QzKKQGACbOQR3RxhbyYOgaUKuGsMlTgEdlSgsdftHFfNrK5SwIVe6htCKQhw6SPjG7/WGjgqs63ilu74Alc6BbZ6L30y8hzfSP8Hfj+FBomfk0wq4P+rsOX3hVE0EmU1asSeQnobHAs8D1KfYyXQerB8/zUL8oNUNkiJ882zSZGdKjXhtu8zrvRhpLXEeBocyWPmfBdOenkifTCiSxwXDtRVIJCJY6cql5Q94Q21NgNK3ogmT6S5H08cI6lEHJMT8JVZXtK+wZM6jznhSFEgHQu+DKz/wMxM5C8Bi7+QzXKUk5pcmlww2sSYb7i0SrLGVR7JcpJZiIrjXWVxxiwnkPeAjwbfByYdO5qMOQnpd8AhG2cSTKZCOzdYUk75Rrlq9dfKOuEt01rVsTSvzSkwSMCfzTOMLKcvcirJI5dmcD8KeMI7CVx1gSuzeOwMnhZTlp4z/lrw7mAuX6pQ4ipLGvQVezFno/btzsNHkBb5rp3HTfIDptj2XFOlkw+ippzW3AT5pQKe+IuHcc4+yatX9II0kPS9GvwFMHsq13mHgLlk+TRYiPrdJNPjVAPJpvkW7ntg9tRNYN7YD4O5bBGifoFk8tKiAPr+OEZeBOYShYvk58H8zvtL4DfBbSOOkdPBE8Fc8vwC/GPwQ2ACZ2QIGAKGgCFgCBgChoAhYAgYAoaAIWAIGAKGgCFgCBgChkDtCPCVJt/vyksiP11ce4vVHLYm3skZoPkgMr+s2nVXrt2qeOcr8Pi9CY/x04gvoDSgaXZN6lsVrw6GL41iST/msXXqsGtVvPoxmFbi6vhak71xXYm6Zaq0Ll55FIv0PP/CxQe/9GqapK1WxMvZiwFxzKtCB6KyXFgVP3l1WxevjGFZE4Z/UX/qwHrRKxAA+clcU1QmXn4CwtgaiVcuOvaCL3DBsN4feZWud2ULPH2d2aLx8qMAqdNIvOI85iL5faDYnxqowB8isnxFoKwulbQf4+9zMBL7UwIVaolXGtD+qXtaKyDz+xix5beBIdoJSrFpOtXts62ntALy1WCJ4eNemWQlXv6SoDRJI9qB6FY6JX9FJLpjtKEn76nsxL6pVDctbUjP/7qK43e1oSdLvPwlammSxrWDHZERPT8gEll/4aTtRZ7jbJeIooFUYtGupSexTMfLL7eyqJZ4QwGx0bFgKWOaFwzrrHJ1TmSmIZKYfPf6ptNmqm8QyNcS7x1wzAYXBRrgp3FvgA8IlIVUaRcXsi2ry4p3BE65G5oY6byWeAlSHY6WOT9PRAZf1qyV8crFc5Fahjg21nETYttuZbwCAA8GipAGj58H94IWoJFWxitBMeXeNo+kJ9Cef8mjF8T1qY5T5NbEy0FYghJguGLnUoHrpjlgmb3Erlc9bzPaljYnQCa1Mt7TEJgEmpU2PWFsRQj/7KXieVeUKm1bvNtC46kKxxuu8Lnd4Yp9CbjJdR7cd5AGR3ZGHQYq04Z4VTj9F7+FEOQJuLb/4QxWBPw5l4CXtf8erKvqQbT+FpKPpVEkAgfBTnrdhsg6ZuYQ+FsF3sOGSjEEfqjAkz8IUczDdmwtL4n46E7ZjnEofOn8eayMd0zzfhheuIFhrjBTgffSMF9oE9d2owLvtiYaGGafLyjwTh7mC6372niKvEWBt3vdDQyzv/0VcJXevw4zSGnXdr4Cj//P3kASH58yxK+g7gHvnFL5Tug/mVJG9QPgWa78i0gTJzeV8DUm4xlJaYAn2TzdKUxFAZyMFp4r0AqBOsGzfwN5rvNIHwI3efC6B/wX2b3wz7jcAo6mIgDOh9crnGee/P4+eLnL+8kiKD6llGyHvVW/2dsJ+c3Kpm6R68ljnVMuxheC17i8n5wBxaFKmSi5FpHgyc5gXgGPeism9V8rUL+sKcFLHPPNYCxdCcPEcWydXDs+tnLx03Ktuw3kG2n6WNpdXLuGj23ieHwJ7/zTT6x/eUzdmD2mjHkXwOGzMU49m71V/mYlNyXKmMebVebLqi+7wDjEHJwXZB6AnG1JHPO4zSpLPAwl3T2aNPavfDTE3v5ohVa+7uqelecjD0AuVUicMKqQfJtHH00ew8vSaWGVYFH3FVWfPTGV8gCUdd7yVA/xBTc4U5nJ42vGW4440zXxVVItpQdndp48AEPe+VhfBh7rCunjEjBnPiHfhnoZAvgudxDoMRekDD/BmOWOBQtTlEc7/d8gvQbMdByYa64HwSTfhjqu9kkfGE06/k06cu3IyGP83qxwyvRA8Sc7CAFG9DoVG+p2dQXrtYGT1wV0/VbJ2LepSiCy/qviQ+rOgUB/S0TRQJrAJ7kOOgxOEjDjTqUqPTDVaUrBfKeXJUKKWWvUx7lIHsmKKA/AO13lRVlOIstk7Ls/0r6MmQwnZ5Sp7NWRsU82El7xaDYPQFlX6YOBoKMcJU9lSHpMHNXU+68cSemDgTItnOMqrc2rnAcg68vF82CgDB2FSrNcRR5fNU2rXQM8GChD+6HSJFfx+jwHMQCe4JxwUf1ynkOvnOD9t9NV7cWe69TsLa5kBCkPBooQwftzVyFq21nkPJAzqBAXl3p7JnqdsudKz+Od/Atd2AM5UW1w4pJ1nVJ3iHxspedxF7K0ozQlUwRAuuB6TdZzzHN7xh0GB2/q+XUqZ1uZMCBuPVhdTKEPdDnalPUcmycwj4EJJvVTwMeBZcKAuPXA40kKMVQUQPrkViyme3PC6MWYx5iy6GAU5p6qwIYTRu6Y5zdUBkDxsQuEK8AElD2OO4zlYD4uTS5V4L4UscfxYIDDD3vcJvCL4EfAmUsVlBsZAoaAIWAIGAKGgCFgCBgChoAhYAgYAoaAIWAIGAKGgCFgCBgChoAhYAgYAoaAIWAIGAKGgCFgCBgChoAhYAj0AoEqX7VViY9fxB0D/iiY34EfAB4Plm82+YXcq+CfgJ8Cfx/8n+A3wUb5CBi+Hkb89PJHYPm9U9WUvujTaBQBwzfQE86Gbh04rbOtQhk/RJ4DPgK8J5jf3pIpU8cy2vAHH2l+2Abb2t7I8E2549dBH+os/K3IgSl1iqjpg75CbbDtYSfDN+UO84n0OwV/DcZfeDVF9M02/HaHcUQ0fDN60TKvE7yFfJMdzw/lI1CwTd0RGdOwkOGbcSf9zQWnx36RPzUztkEnwzfjDt6BMj3q3J5hW7XoE3DAHwOST8pwxhh0TP36aW1GiNFFhm8GVPwttb7R8qcJMqqUKjoPtfjH4nRb7IRZ5O+aGeugUa/wPR/ADCS+SxC47hQ8MqmTLoazLWDdxibkT49ohLHoev8aUadtJk3j+1ceRsSL+HKmyaNW4Ms3Ffom8+wuRPz7xp93TDmPPgcD7ZcyNxhZ067vk7H4PgY9Xxe+SQCbjdCdAI4lH1/2hZ7TL9Givqk8QA7Reii13QrkJwQM/8GzY50N4I+BixJj0W0OgxyL7zO49n0DgP1jABMe4vOVaFHy8WVf6DmxI+kbe0RKBL8JvT+dsB7XafzLKP8E1n4o/wJ8NLgsMRbtk7EOGhXBdykuTl8v5WfBE8E3Bco4Yh0JLkutwHcBotcXnfcWYgT2/q5O16dMYNI6Moqiia/vtG/GOmhUFN8dcYH/AtbX7cs/RflBNQDRCnz5xYV/+Dsj4uJ2gM1CsAbnZ8jXAQybZwzaN2NkrINGZfHlg/4tsMbgeeQ529RBrcJ3Nq5IX+g7yNfxvrcsUGybMeiYGOOgkuEbcedOg42+4ZTnRdSr24Rt+nEwtkEnwzfiDk6GzTqw7gD8SGBaRN2qJmzD/yCBsTCmYSFeCz/GNXxz7uh8DyQCxjVYEyMiffprULbHGIaFeG56L1h3PF82fAN3O9QRCRzXZ4vAMZsV3y3rsK6/xpMbMkwdbyau8zWwXJukL0E3HWz4AoQY4tSxDCwA1p3S97BMtTxGuTEFq9ug3xnsk+HrI5KR5w+guKvjWWBo6szrnKzDuoO8q0X4XXQ4NC+A/et/A7qTwbFk+MYiZXZj2Fn+Dux/bMFO+O/g3cFGhkDtCOwPj4+D/dFuE3Tn196aOTQEHALsXP7HG+yE/Nr5d5yNJYZArQhwGvV/IsBOx2n3i2BOw0aGQO0IcOPADYQ/zb4AHTccRoZA7QjwiORWsN/pmOfnUDuBjQyB2hHgz0F5OOx3vNehm1V7a+bQEAAC/JzsarDf6Zjnh6ExPzuAmZEhUAwBvnV4Gux3PB6Qzy3myqwNgXgELobpZrDf8X4I3YR4N2ZpCMQjsBdMHwL7nY6/n70s3o1ZGgLFEDgd5vwlnt/xVkJX108GikVk1kOPAH97cRfY73TMfxU8AjYyBGpH4Bh4XAv2Ox6/rmaZUQ8Q6NfrII46vMkfBR8KPgA8Htz034geizb4A+3PgH26G4o/A/PT90EnHnzzw4f3g/cG8y8ZjAPLgTg/ftgI5kevfOBeAK8BU99T6lUH5A9rrgIfVtPVPQE/fw/+dqQ/rt+WgKd49uxs7HTsfINMByN4Psz71HQRnBm+D36mJn+pbprsgGej1RvBMqr5QayGYhn4YfCPwXwC+Wc8SKzDJ5gd51jwCeBJ4BCxzjzw4kDhpdDx0HgHr4xtcsPxiqcfpOwHEewfgmVU82P/ORSrwMSV18n30zLCsc5vg7nbJ8484+THEyFinXvBT4YKq+qa6IDXIagLA4E9AB2nvqp/JuNA+ODm4HiwT9dDMR98D3i6V/gO8peAr/X0g5Y9BQEfFQiaD/R3wVUfKnbKk8ChB/5R6Pm2pzaqswNyxLvdi4xg/AGYgTdBvBH/BiZoacTR9VTwc2kGA6LniMdRW9NGZL4J5vvoJmg/OJ0L5vpR093I1DIi1tUBOZXqEelt5Dl1NtXx4LqD2BE5rfKrFKHnIXDNt0UUA5yeg9j1iMTRfCG4qY7nQ8WOeC5YH0lxxL3FNyyar6MDckOgNxecarlm6wf5DwJj+1A/AqmxTS5n9lH+arnxyl8R0X8Q1qIylz2laWzpmqMV70BynPLBKfiPVb7X4q1okGvEQ13D+yLlDvEulx+05EwE/AEV9FOQ/WWOKm5c5AM9Hry3a+m3kHL584zLF052KFzj1xVOhHjWr7Nb/97fHJXvl/gpNMxRQogxMtZBIy4fDlFBc1fbhgeJMTAWIcbIWEtRlQ54kdfiF7x8P7N+LH6s/Ywttu3pnuH3vHw/s34sfqzRselFZXQlZzjDq3C/l5fsbAhHS8alP0B6n9JxA/N7Kk/xv8BcTwrF+BFbPxY/VrHT6VRkeK62m1a2SG7TLt6PZWJZnKqMgLt6ja738pI9XASV+roPqzIRfZ1fh3YhHfV+LH6stPGpzZ2PsW7yA+5j3o8l7TA8N8Qqu+AV8D5NtXAk5MdVXkRudDjCSWfhQpYj27tgIY7EPPyU3fT/QuahKo8bhGL8iO0REP5HMkifBXNzMkj0lwh2TxXwNyD/TOX7Kb4PjV+gAngN8rUqHy1W2QVPQCvHqpZ+Bfk7Ki8i9RyyOaWSKVOnaQsyPwE/7JgydZpi/Ij9VRB4Nih0E4QHJTMgKZcC+3uxEpc20McQBO+/EB92vfETfW5aZQTcBd5fBe+sWuE6brnK90OcgUbZ0YXehsCjgzdFMSApp7VLwXqdfjPya/ocPx+K81QMnKW+DN6kdNFilTUgb+gnvJYeQr6fUx3bZgyaGOOgdT7GzxvKc1ZN5yKzl1b0WGbbjEETYyzV+eikyhTM+pxOnwR/khkQO/TFYK5VHgP3kuahMe6s9UN1OvL39jKImtt6Hf5eBvOsjcQZi0ceG8A/BfeSuKT5E7CeNe9Enuvr0qSdlXaCipPB3IDsqpy8AplrxEoBKn9pIjdCXDvqkWE98tyIrAIPA+2Bi/g0mNOy0EYInJK5DGqSuHw5DzxONcIR7wYwH5BKVFcHlCDmQ7hCMi7lGuyz4Bs9fdUsR7yvgPUalD6/BL6SwhDSTFyT3vjxErkG48j/KDM1Eke82WC9BqV7Puy1bejq7oAMkBTqiNS/C+aw/TXwcnARmgFjHk2cCR4bqDjMHc+/3FBHpA1PCp4GPwJeAy5C3Fxweud0H+oXtXY8CSzUkJTVkU6GE34tcXwdzgI+eJ54IXhYptrAJWaqODWfAp6UaVW+cDWqLgVXnmrTQmi6A/rtckg/F3wq2J86fVs/z6l8CXghmFOOUTcCU6Hi52dcF/tTZ7d1p4ZTOdfr/KOZKzuLLGcIGAKGgCFgCBgChoAhYAgYAoaAIWAIGAKGgCFgCBgChoAhYAgYAoaAIWAIGAKGgCFgCBgChsCAIPD/TjBfe/sJBl4AAAAASUVORK5CYII=;labelPosition=right;align=left;fontColor=#999999;" vertex="1" parent="1">
                    <mxGeometry x="210.14999999999998" y="-455" width="40" height="40" as="geometry"/>
                </mxCell>
            </root>
        </mxGraphModel>
    </diagram>
</mxfile>